<svg id="Layer_1" data-name="Layer 1" xmlns="http://www.w3.org/2000/svg" xmlns:xlink="http://www.w3.org/1999/xlink" viewBox="0 0 2071.55 811.57"><defs><style>.cls-1{fill:none;}.cls-2{fill:#522d80;}.cls-3{fill:#333;stroke:#333;stroke-miterlimit:10;stroke-width:8px;}.cls-4{clip-path:url(#clip-path);}.cls-5{fill:#f26735;}</style><clipPath id="clip-path"><rect class="cls-1" x="1410.33" y="234.67" width="338.2" height="323.79"/></clipPath></defs><g id="Layer_2" data-name="Layer 2"><g id="Layer_1-2" data-name="Layer 1-2"><path class="cls-2" d="M1224.69,423.39V369.74q16.3-.87,24.59-4.92t14.3-13.52q6-9.49,8.27-23.81,1.8-10.73,1.79-37.33,0-43.35,4-60.47t14.53-27.5q10.5-10.38,30.62-16.43,13.62-4,42.92-4h11.85v53.41q-24.81,0-31.86,2.79a20.32,20.32,0,0,0-10.39,8.5q-3.36,5.7-3.35,19.56,0,14.07-2,53.42-1.11,22.14-5.81,35.88t-12,22.69q-7.26,8.94-22.24,18.55a78.48,78.48,0,0,1,21.57,17.78,71.53,71.53,0,0,1,12.87,24.7q4.47,14.55,5.81,38.89,1.56,37.11,1.56,47.4,0,14.76,3.58,20.56a22.24,22.24,0,0,0,10.84,8.83q7.26,3,31.41,3v53.65H1365.7q-30.18,0-46.27-4.81a62.53,62.53,0,0,1-27.16-16A56.28,56.28,0,0,1,1277.4,563q-3.8-16.41-3.8-51.75,0-41.13-3.57-53.42-4.92-17.89-14.87-25.6T1224.69,423.39Z"/><path class="cls-2" d="M1934,423.39q-16.32.9-24.59,4.92t-14.2,13.52q-5.92,9.51-8.38,23.81-1.8,10.74-1.79,37.11,0,43.38-3.91,60.58t-14.42,27.6q-10.5,10.41-30.85,16.44-13.63,4-42.92,4h-11.84V557.74q23.91,0,31.29-3a21.76,21.76,0,0,0,10.84-8.72q3.46-5.7,3.58-19.33t1.9-52.09q1.11-23.25,6-37.22a75.2,75.2,0,0,1,13.07-23.69,77.56,77.56,0,0,1,20.91-17.11q-16.56-10.72-24.15-21-10.5-14.74-14.3-37.55-2.49-15.63-3.58-68.86-.23-16.74-3-22.35t-10.06-8.61q-7.26-3-32.52-3V181.74h11.84q30.18,0,46.28,4.69a60.55,60.55,0,0,1,27,16,58.35,58.35,0,0,1,14.86,27.72q3.92,16.44,3.91,51.75,0,40.92,3.36,53.42,4.89,17.91,15,25.6t30.63,8.83Z"/><path class="cls-3" d="M184.59,368.8c-22.5,0-35.4-9-45-28.5L112,284.5c-5.1-10.19-8.1-19.8-8.1-31.5,0-13.2,2.4-21.3,8.4-33.3l27.6-55.5c10.2-20.7,23.1-28.8,46.2-28.8h51c6.6,0,15,3.6,15,15,0,10.8-8.1,15-15,15H187c-12.9,0-15,1.2-20.7,12.6l-26.1,52.2c-3.9,8.1-6.3,13.5-6.3,22.8,0,8.4,2.7,13.5,6.3,20.7l25.5,51.9c6,12.3,9,13.2,22.5,13.2h48.9c6.6,0,15,3.6,15,15,0,10.8-8.1,15-15,15Z"/><path class="cls-3" d="M368.49,368.8c-15,0-26.7-3.6-37.2-15.3-9.9-11.1-11.4-21.9-11.4-35.7V150.4c0-9.6,4.2-15,15-15s15,5.4,15,15V317.8c0,16.8,5.1,21,18.6,21h51c13.5,0,18.6-4.2,18.6-21V150.4c0-9.6,4.2-15,15-15s15,5.4,15,15V317.8c0,13.8-1.5,24.6-11.4,35.7-10.5,11.7-22.2,15.3-37.2,15.3Z"/><path class="cls-3" d="M616.58,368.8c-22.5,0-35.4-9-45-28.5L544,284.5c-5.1-10.2-8.1-19.8-8.1-31.5,0-13.2,2.4-21.3,8.4-33.3l27.61-55.5c10.2-20.7,23.1-28.8,46.2-28.8h51c6.6,0,15,3.6,15,15,0,10.8-8.1,15-15,15H619c-12.9,0-15,1.2-20.7,12.6l-26.1,52.2c-3.9,8.1-6.3,13.5-6.3,22.8,0,8.4,2.7,13.5,6.3,20.7l25.5,51.9c6,12.3,9,13.2,22.5,13.2h48.9c6.6,0,15,3.6,15,15,0,10.8-8.1,15-15,15Z"/><path class="cls-3" d="M781.89,165.4v10.8c0,9.6-4.2,15-15,15s-15-5.4-15-15V135.4h148.2v40.8c0,9.6-4.2,15-15,15s-15-5.4-15-15V165.4H841V353.8c0,9.6-4.2,15-15,15s-15-5.4-15-15V165.4Z"/><path class="cls-3" d="M967.89,135.4h133.2c7.8,0,15,4.2,15,15s-7.2,15-15,15H997.89v46.2h73.8c7.8,0,15,4.2,15,15s-7.2,15-15,15h-73.8V353.8c0,9.6-4.2,15-15,15s-15-5.4-15-15Z"/><path class="cls-3" d="M349.89,628.54H453.1c7.77,0,15,4.2,15,15s-7.2,15-15,15H319.89V560.73c0-22.5,11.4-33.9,33.9-33.9H438.1V455.16H334.89c-7.8,0-15-4.2-15-15s7.2-15,15-15H434.5c10,0,16.8,1.5,24.3,8.4,8.4,7.8,9.27,15.9,9.27,26.7v61.47c0,10.8-.87,18.9-9.27,26.7-7.5,6.9-14.4,8.4-24.3,8.4H349.89Z"/><path class="cls-3" d="M654.08,425.16a30,30,0,0,1,30,30V628.54a29.53,29.53,0,0,1-29,30H565.9a29.53,29.53,0,0,1-30-29c0-.32,0-.63,0-1V455.16a30,30,0,0,1,30-30Zm0,203.38V455.16H565.9V628.54Z"/><path class="cls-3" d="M781.83,628.54H885.08c7.8,0,15,4.2,15,15s-7.2,15-15,15H751.83V560.73c0-22.5,11.4-33.9,33.9-33.9h84.35V455.16H766.83c-7.8,0-15-4.2-15-15s7.2-15,15-15h99.6c10,0,16.8,1.5,24.3,8.4,8.4,7.8,9.3,15.9,9.3,26.7v61.47c0,10.8-.9,18.9-9.3,26.7-7.5,6.9-14.4,8.4-24.3,8.4h-84.6Z"/><path class="cls-3" d="M1086.09,425.16a30,30,0,0,1,30,30V628.54a29.53,29.53,0,0,1-29,30H997.89a29.52,29.52,0,0,1-30-29c0-.32,0-.63,0-1V455.16a30,30,0,0,1,30-30Zm0,203.38V455.16h-88.2V628.54Z"/></g><g class="cls-4"><path class="cls-5" d="M1589.74,235.35c-.34.94.22,1.7.34,2.38-.38.07-.55.62-.68.68-1.24.41-2.81-.32-4.08,0-.69.16-1.65,1.55-2.38,1.7-1.58.3-2.42-.73-3.75.34-.63.49-2,4.81-2.38,5.78-.37-.2-.63.15-1,0s-.88-1.17-1.36-1.36c-3.11-1.27-3,1.29-4.42,2.38-.52.38-1.41.38-2,.68l-.34-1.36c.41-.37,1.55-.79,1.7-1.36.1-.39-.15-1,0-1.36-.29-.24-.6-.2-.68-.68a9.93,9.93,0,0,1-2,0c-.34.46-1.23,1.14-1.36,1.7-.06.23.15.78,0,1s-1.58.63-1.7,1c-.51,1.54.34,2.71.68,3.74h-.68a3.81,3.81,0,0,0-1.36,2.72c0,.27.92.82,1,1s.16,1.2.34,1.36.79,0,1,.34a20.77,20.77,0,0,0-1,3.4c-.18-.12-.84,0-1,0-.89-1.89-1.11-1.19-.68-4.08-.34-.16-1.06-.95-1.36-1-1-.28-2.41.29-3.4,0-.34-.11-.53-1.23-1-1.36s-1.63.26-1.36.34c-.41.72-.91,1.42-1.36,2.38,0,.1-.65.24-.68.34-.22.55.07,1.64-.34,2-.62.57-1.72.15-2.38.68-.49.37-1.41,5.3-.68,5.78,1,.68,1.67,0,2.38-.34.53-.29.25-.66.34-1.36l1,.34a15,15,0,0,0-.34,2.38c-.37.07-.54.63-.68.68-1,.35-2.68-.27-3.74,0l-.34.68c-.55.35-1,0-1.7.34a43.33,43.33,0,0,1,1-4.42c-.64-.27-.17,0-.34-.68-1.63-.13-3.07-.66-4.08.68-1.33,1.73-.84,3.48,0,5.1-.68.82-1.86,1.77-2,3.06-.06.4.2,1.34,0,1.7a11.61,11.61,0,0,1-1.7.34,14.92,14.92,0,0,1-.34,2.38,7.3,7.3,0,0,1,1.36.34c.37.31.33,1.42.68,1.7-.74,0-4.55.33-5.44,1s.45,4.1,0,5.44c-.24.71-1.33,1.43-1.7,2a56,56,0,0,1-4.42,6.46c-.3.35-1.19.68-1.36,1.36-1.06,4.18,1,2.67,2,3.06.23.09,1.33,1.1,1.7,1.36-.63,1.33-2.17,3.43-1,5.44.2.36,1.15.57,1.36,1s-.48.25-.34,1c.33,2,2.56,2,4.42,2-.2.08-1.3,1-1.36,1-3.28,1-2.79-.46-4.08,2.72-1.52-2-2.66-2.48-5.78-3.06-.26.53-.63.66-1,1,.62,1.54.64,2.29,1.36,3.74a9.54,9.54,0,0,0-2,1.36c-.38.47-.27,1.31-.68,1.7s-1,.08-1.36.34a8.83,8.83,0,0,0-1.36,1.7,4.43,4.43,0,0,1,0,1.36,7.42,7.42,0,0,0,4.08.34c-.19.38.15.62,0,1l-.68.34c-.73,1.12-.38,1.79-.68,3.4a8.63,8.63,0,0,1,1.36.68c1,1.32,1.46,2.44,2.38,3.74-.67.45-2.49,1.24-2.72,2-.18.59.17,1.11,0,1.71a18.69,18.69,0,0,1,3.4,1c.2.09.71.93,1,1,.6.14,1.1-.16,1.7,0-.2.77-.38,1.53-.68,2.72-.85,0-1-.66-2-.34-.2.05-.7.86-1,1,1.3,2.41-.16,1.75,3.4,2,.33.9.7,1.94,1,2.72h.34c.27,1.43-.46,1.93-.34,3.4.09,1.22,1.16,3.67,1.36,4.76.14.78-.27,1.62,0,2.38,0,.14.6.31.68.68,2.82-1,.85.58,2.72-1.7.37.18.62-.16,1,0,.1,0,.8,1,1,1,1.47.33,1.68-.63,3.06,0s-.16,1.69-.34,2.38c-.1.38.14,1,0,1.36,2.51,1.79,3.43,2.83,7.14,2.72a7.46,7.46,0,0,1,.68-1.7c.26-.36,1.11-.38,1.36-.68v3.74c.09.41,2,2.72,2.38,3.4.92-.08,1.79,0,2.72,0,.11-.23.48-1.32.68-1.36,3.06-.69,3.88,2.63,5.44,3.06,1,.25,1.52-.19,2.38-.34.33.4.5,1.52,1,1.7.36.12,1-.19,1.36,0,.07-.36.63-.54.68-.68.19-.59-.17-1.12,0-1.7a15.74,15.74,0,0,1-2.38-.34c-.59-.27-.85-1.87-1.36-2h-.68c-.18-.37.18-1,0-1.36.24-.37.82-.95,1-1.36.45.4,1.4.47,1.7,1,.17.32-.1,1,0,1.36.14.52,1.07.93,1.36,1.36.65-.13,1.38.15,2,0,1.17-.28,1.46-1.64,3.06-1.7,1.84-.09,3.57,1.69,6.12,1,1.74-.47,1.31-2.7,2.38-3.4s2.86-.2,4.43-.68c.37-.13,1-.84,1.35-1a4.76,4.76,0,0,1,0-1.36c.19-.37.79-.24,1-.68,1.59.51,3.61,1.62,5.44.68.43-.24.65-1.44,1-1.7s1-.15,1.36-.34,1-1.19,1.36-1.36a15.51,15.51,0,0,1,2.38-.68,8.68,8.68,0,0,0,.34-2c-.13-.52-1.27-1-1.36-1.36-.27-1,.43-.86.34-1.7a4.76,4.76,0,0,0,1-1.36c1.33.18,2.83.59,4.08,0,.74-.38.52-1.13,1-1.7a16.31,16.31,0,0,1,3.06-2,11.76,11.76,0,0,1-.34-3.06c.12-.77,1.36-1.49,1.7-2a20.32,20.32,0,0,0,.68-2,7.23,7.23,0,0,1-1-.68c-.16-.4.19-.66,0-1,2.71-1.93,3.22-3,0-4.77,2-1.05,3.77-2.12,5.78-3.06a6,6,0,0,1,0-1.7c-.41-.19-1-.9-1.36-1-1.36-.42-2.2,0-3.06-.68-.36-.3-.2-1.12-.34-1.7-.76.27-.52-.94-.68-1.36.05,0,1.9.13,1.36.34,2.19-.25,6-.52,4.08-3.4-.18-.26-1.28-.41-1.36-.68-.21-.67.6-1.63.34-2.72-.23-.86-1.49-1-1.7-1.36-.7-1.06-1-1.37.34-2-.17-2.32-.29-2.23,1-3.4a5,5,0,0,1,1,0,7.78,7.78,0,0,1,.34-2.38l2-1c-.47-1.42-1-2.79-.68-3.74.08-.27,1-1.1,1-1.36.13-.78-.47-.5-.34-1l-1.36.34c-.85,2.86-.53,3.85-2.38,1.36-.91.11-.8.44-1.36.68,0,0,0-2.13,0-2.72,2.72-.62,1.7-.16,3.06-2,.29.21.66-.14,1,0s.42,1.18.68,1.36c1.57,1.12,3.69.35,5.1,0-.16-.66.18-1.4,0-2-.12-.39-1.24-1.19-1.36-1.7s-.19-1.87.34-1.7v-.68c-.08-.21-1-.91-1-1s.08-.84,0-1c2.52-1.1,2.85-1.3,4.08-3.74l.68-.68c.11-.74-.6-1.31-.34-2.38.13-.59,1.25-1.33,1.36-2s-.57-1.58-.34-2.72c.14-.68,1.54-1.83,1.7-2.38.2-.74-.13-1.63,0-2.38-2.23-1.31-2.13-.76-2.38-4.08.55-.35.2-.3.34-1h.68c0,.68-.06,1.71,0,2.72.06,0,1.89-.06,1.36-.34a7.5,7.5,0,0,1,1-2,7,7,0,0,0,0-1c-.14-.55-1-1.22-1.36-1.7.27-.45.77-1,1-1.36s.94-1.43,1-1.7c.36-1.62-.66-3-.68-3.74,0-1.36.83-2.06.68-3.74l-.68-1c-.78-3.76-.17-3.18-3.74-4.08-.16.68-.52,1.94-.68,2.72-.66.17-.43-.3-.68.34-1.19-.06-2.7-.29-3.4-.34a13.46,13.46,0,0,0-.68-5.78c-1-.23-2.67-1.16-4.08-.68-.26.07-.66.84-1,1a17.18,17.18,0,0,1,0,2.38h-.68c-.34-.71,0-1.09-.34-1.7-.48-.84-2.19-1.58-2.38-2.72-.33-1.93.93-2,.68-3.74-.08-.48-3-4.34-3.4-4.42-1.88-.41-2.16.87-3.06,1.36-1.11.57-2.39.88-3.4,1.36.55,2.23,1.86,6.38-2.38,5.44-1.5-.34-1.09-1.37-1.71-2.72-.1-.23-1-.46-1-.68-.31-1.57.83-2.93,0-4.42-.49-.88-1.71-.61-2.72-1-.08.19-1,.47-1,.68Zm-101.33,42.84c-.49.48,0,1.72-.34,2.38a3.47,3.47,0,0,1-3.4,1s-.64-1.82-1.7-2a8.38,8.38,0,0,0-2.72.34l-.34,2.72-1.7,2,1,.34a19.1,19.1,0,0,1,1.36,2.72c-.37-.17-1,.13-1.36,0-1.17-.4-2.44-3.85-3.74-4.42-1.66-.74-4.52-.66-6.46-1a5.05,5.05,0,0,1-1.36,1s0,1,0,1c.42.11.54.85,0,.68-.08,0-.29-.57-.35-.68-.94,0-2.12,0-3,0-.41,2.23-1.36,3.25-2.39,4.76-.41-.32-1,0-1.36-.34a10.15,10.15,0,0,1-.68-1.36c2.29-.64-3.83.13-1.36.34-.55.16-.94,0-1.36.34l-2,2.38c-.53.95-.25,2.76-1.36,3.4a9.48,9.48,0,0,1-2.38.34c-1.66,4.38-1.43,1.48-4.08,2.72-.43.19-.63,1.38-1,1.7s-1,.14-1.36.34l-.34.68c-1.48,1-2.89.63-4.42.68a13.53,13.53,0,0,1-.68,2c-.58.92-1.8.76-2.72,1.36-1.17.76-3.94,5.17-4.76,5.44a14.73,14.73,0,0,0-2-.34,29.26,29.26,0,0,0-4.42,1,29.9,29.9,0,0,0,.34,4.42c-.78-.2.12.39-.68.34l-.68-.68a2.85,2.85,0,0,0-2.72,1.36c-.56,1.18-.08,2.24,0,3.4a7.74,7.74,0,0,1,2,0c-.31,3.89.11,4-3.4,3.74a6.15,6.15,0,0,1-1,1c.39,1.34.3,2,.68,3.4-.15,0-1.47.26-2,.34,0,0,.15-1.76-3.4.68.5,3.76-1.24,5.05-.68,9.19-1,.57-2.15,1.44-3.06,2,.12.59-.13,1.09,0,1.7.17.85,1.23,2,1.36,3.06a6.5,6.5,0,0,1-.34,3.06s-.68.34-.68.34c-.38,2.1.47,4.61.68,6.46.42.14.87,0,1,.34s-.19,1,0,1.36c-.24.28-1.16.68-1.36,1-1.1,1.78,0,3.39-.34,5.44l-.68.34v.68a4.66,4.66,0,0,0,0,2.72c.08.21.83.49,1,.68v.68c3.52.24,3.55.27,5.44-2,.26.08,1,.36,1,.34-.15.48-.64,1.12-.68,1.36a7.29,7.29,0,0,0,.34,2c.15.1,1,.49,1,.68.26.78-.07,1.88,0,2.72-3.11-1.45-5.14-1.15-3.74,2.72.17.48,0,.77.34,1,.62.39,1.56,0,2.38.34.21.09.8,1.32,1,1.36,2.19.4,3.07-1.82,3.74-3.06.38.19.94.66,1.36.68-1.18,2.36-.71,2,0,4.08a5,5,0,0,0,0,1c-.18-.5-.37.88-.34,1,.44,2,3.23,1.83,5.1,1.7-.1.17.07.82,0,1-.36.91-2.59,1.89-3.4,2.38.2.57-.21,1.12,0,1.7a9.22,9.22,0,0,0,2.38,2c1.4.34,3.9-.55,4.76-1,.32-.18.88-1.29,1.36-1.36,1.09-.18,1.47.43,2.38.68,0,0,0,1,0,1-4.24.47-5.35,1.52-3.06,4.76,1.82-.47,2.26-.22,4.08-.68.14,1.12.45,3.32,1.36,3.74.62.28,1.68-.1,2.38,0,3.62.49,3.7,2.05,6.12-1.36,1.75.19,2.82.49,4.08,0l.68-.68c1.14-.16,2.31.62,3.06.68,1,.06,1.31-.34,2-.34.22-.86.39-1.6.68-2.72a13.66,13.66,0,0,0-1.7-1v-.68c1.13-.53,2.41-1.37,3.4-1.7a6.08,6.08,0,0,1,4.08,0l.68.68c1.76.26,2.63-.84,3.75-1,.76-.14,2,.3,2.72,0,1-.46,1-2.57,1.7-3.4s2.46-1.31,3.4-2c-.32-.83,1,0,1,0,.47,3.09,0,2.57,3.06,3.06.51-1,1.35-3,2.72-3.06.59,0,.19.47,1,.34.17.48-.18,1.21,0,1.7.06.18.85.67,1,1,.37-.15,1,.1,1.36,0,1.06-.3,1.63-2.76,2-3.74,3.8-.16,3,.19,4.42-2.38a16.13,16.13,0,0,0,3.74,0c.07-.37.62-.54.68-.68.25-.74-.26-1.64,0-2.38s1.63-1.18,2-1.7.5-1.58,1-2c1-.9,2.56-.95,3.06-2.38.25-.76-.15-1.6,0-2.38.06-.41,1-1.64,1-2,.25-2.59-1.24-2.83-2.72-3.74-.45.59-.91,1.11-1.36,1.7.85.16-1,.68-1,.68.32-1.84-.27-1.79,1.7-3.06.78-.52,1.29-.47,2-1,.22-.18.41-.91.68-1,1.16-.57,2.57-.05,3.74-.68.54-.31.25-1.37.68-1.7-.53-1-.13-1.13-1-1.7a10.38,10.38,0,0,0-1.7-.68c.36-.25.6-1.2,1-1.36,1-.4,2,.09,2.72-.34s.22-1.07.68-1.7c.29-.43,1.43-.63,1.7-1s1.55-4.16,1.36-5.1c-.12-.55-1.18-1-1.36-1.36-.37-.8-.08-1.34-.34-2.38.44,0,.5-.64.68-.68.72-.2,1,.58,1.36.68,2.06.46,2.5-.75,3.4-1.36a33.31,33.31,0,0,1-.34-4.42c-1.62-.82-2.29-.31-2.38-2.72s1.16-2.19,1.36-3.07a5.3,5.3,0,0,0-.34-2c-.26-3,.83-3.3,0-6.12a5.7,5.7,0,0,1,1.7,0c1-2.17.89-1.28.34-3.74-.46-.13-1.07-.08-1.36-.34a24.11,24.11,0,0,1-2-2.72c1.47-1.16,2.51-2.32,4.08-3.4-.18-.59.17-1.11,0-1.7-.06-.2-1-1-1-1.36-.32-1.47-.15-2.42-.34-3.74.38,0,1.85.26,2.72.34a10.19,10.19,0,0,0,.34-2c0-.17-1.63-4.34-1.7-4.42-.34-.32-1.35-.45-1.7-.68.5-1.57,1.66-4.4-.34-5.1-.59-.21-1.13.2-1.7,0a16.22,16.22,0,0,1-.68,1.7c-1.7,3-.3.19-1.7.68a9.28,9.28,0,0,0,0-2,4.3,4.3,0,0,0,.68-.34c.15-.5.34-.42.68-.68a13.82,13.82,0,0,1-.68-2c-.61.29-2.74,1.18-3.4,1-.08,0-.85-1-1-1-.39-.1-1,.14-1.36,0-.27.26-1.06,1.6-1.36,1.7s-1-.19-1.36,0c1.19,0-.67-4.4-.68-4.42a9.81,9.81,0,0,0,3.06-1.7,8.7,8.7,0,0,1,0-2,9.82,9.82,0,0,0-3.74-.34c-.44-.89-.33-.79-1-1.36a12.86,12.86,0,0,1-2.72,1.7c-.4,3.45-.18,3.41,2.72,3.4-.7,1.41-.58,1.95-1,3.74a10.75,10.75,0,0,0-3.4-3.06h-.34c-.59-1.18-.16-2.84-.34-4.08.72-.14.64,0,1-.34s1.65-.82,2-1.36c.16-.23.27-1.42,0-1-.11-.05-.49-1.26-.68-1.36-1.62-.84-4.07.33-5.44,0-1-.24-1.47-2.41-2.38-2.72h-.68c-.19.32-.79.1-1,.34Zm210.82,4.42c-.39.59-.16.91-.34,1.7-1.56-.41-2.2-.28-3.74-.68-2.08,4.45-1.33,3.2-6.47,3.4l-1.7.68c-.26.05-.6-.3-.34-.34-.47-.21-1.23.2-1.7,0s-.51-2.35-2.38-1.7c0,0-.82,1.3,0,1,0,0,.27,1.67.34,2-1.56,1.11-1.31.71-2.38,2.38a6.16,6.16,0,0,1-2-.68c-1.28-.86-.6-1.6-.34-1.36.12-.75,1-.72.68-2-.08-.32-1.18-.74-1.36-1s-.18-.82-.34-1.36c-.11,0-1.2-.25-1.7-.34a24.69,24.69,0,0,0,0,5.44,22,22,0,0,0-4.08.34c-.49.15-1.55,1.64-2,2a5.11,5.11,0,0,0-1.7,0,15,15,0,0,1-.34-2c-1-.24-2.34-1.16-4.08-.68-.21,0-.91,1-1,1h-.68c-2.46,2.4,1.35,2.94,2.72,3.74.43.25.94,1.1,1.36,1.36a11.2,11.2,0,0,0-1.36,1c-1.49-1.05-3.14-2.29-5.78-1.36-.57.19-1.13,1.2-1.7,1.36s-1.39-.13-2,0c-.35-1.35-1.09-4-2.72-4.08-.53,0-1,.53-1.7.68-.08.36-.64.53-.68.68a14.15,14.15,0,0,0-.34,3.06,44.3,44.3,0,0,1-7.14,1.7c-.5,1.34-.83,2.24-1.36,3.4h-.68v-.68c-.57-1.63-2.23-.92-3.4-.68-.44,2.6-1.1,3.13-2,5.1-2.9-1-2.25-.91-4.42,0a9.93,9.93,0,0,1,0,2l1,.34s0,1,0,1a18.49,18.49,0,0,0-4.08,0c-.13.77-1,.67-.68,2,0,.08,1.07,1.33,1,1.36-1,.41-1.45,2.72-1.7,3.74-2.82.72-4.14.63-6.12,2,.12.77-.27,1.65,0,2.38s1.93,1.14,2.38,1.7.65,2.28,1.36,2.72,1.52-.1,2,0c.07,0,.36.63.68.68,0,0-.61,2-.34,2a10.85,10.85,0,0,0-5.1.34c.15-1.59.54-3.88-1-4.42-.38-.13-1,.16-1.36,0-.09.37-.64.54-.68.68-.54,1.58.73,2.21.34,3.74-.22.82-4.86,4.64-5.78,5.79.4.38.16.63.34,1.36.82.21,2.2.85,3.06,1-3.91,1-5.83,2.35-4.08,6.12-1.18.84-4.1,4-3.74,6.12.07.46,1.24,1,1.36,1.36s-.17,1,0,1.36c-.75.42-4.59,3.27-4.76,3.74s.13,1.39,0,2a7.28,7.28,0,0,1,1.36.34c.25.15.14.89.34,1-.54.91-2.13,2.12-2.38,3.06-.4,1.41.63,4-.68,4.42-.77.24,1,2,1,2v.34a8.47,8.47,0,0,1,1,1.36,4.93,4.93,0,0,0,1,1c-.73,1.05-2.47,2.83-1.7,5.1.07.24.84.65,1,1a18.55,18.55,0,0,1,2.38-.34v3.4c.07-.74,0,3.56.34,4.08.21.35,1.63.39,2,.68.23.17.36,1.16.68,1.36a15.93,15.93,0,0,0,3.06,1c0,.88-.31,2.57,0,3.4.36,1,2,.91,3.06,1.36.34-.5,1-.86,1.36-1.36A13.26,13.26,0,0,0,1619,389c.28.82,1,3.21,1.7,3.74,1.19.92,2.44.55,4.08.34-.15.23,0,.77,0,1s-1.41,1.41-1.7,1.7a10,10,0,0,1,.68,1.7,25.66,25.66,0,0,1,3.4,0c.53,0,1.36,1,2.72.68.3-.07,1.06-1.26,1.36-1.36s1,.15,1.36,0c1.94,2.75.68,2.9,4.76,3.74,1.14-1.63,2.17-5.09,5.44-4.42.19,0,1,1.28,1.36,1.36,1.27.27,2-.73,3.4-.34.33.09.71,1.17,1,1.36.54.33,1.1,0,1.7.34.34.19.39,1.16.68,1.36.59.42,4.79,2.07,6.12,1.7.59-.18,1-1.52,1.7-1.7,1.82-.46,2.66.78,4.42.34,1.2-.31,2-2.66,2.38-3.74,4.66.63,3.12.11,5.78-1.7.55-.38,1.2-.31,1.7-.68.3-.23.67-1.25,1-1.36,1.38-.46,3,.35,4.42,0,.6-.16,1.21-1.05,1.7-1.36-.1-.56-.36-1.53-.34-1.7-.8-.37-1.68-1-2.38-1.36a25,25,0,0,0,3.4.34c1.21-.19,4.22-2.52,4.42-3.74s-1.56-2.46,0-3.06c.83-.33,2.16.14,3.07,0a23.8,23.8,0,0,0,3.05-1.36,6,6,0,0,1,0-1.7c-2.31-1.09-2.76-1.18-5.1.34l-.34.68c-1.2.2-1-.63-1.69-.68.08-.52.35-1.58.33-1.7,2.69.25,4,.25,5.44-1.36,2.58-2.89,1.12-3.72-2-4.76.18-.38-.16-.63,0-1s1.23-1,1.36-1.36-.15-1,0-1.36h.68a8.79,8.79,0,0,1,0,1.36c.45.22.8.22,1,.68,1.82-.61,4.89-1.82,5.11-3.74.29-2.91-3.25-2.84-5.11-2.72a8.41,8.41,0,0,0,.68-5.44,11.29,11.29,0,0,1,2-.34c.08-.37.63-.54.68-.68.62-1.81-.08-1.72,1-3.06a11.52,11.52,0,0,1,1.7-1.36c-.09.29-.66,1.18-.69,1.36-.17,1.12.64,1.41.35,2.38-.12.34-1.43,1.1-1.7,1.36a6.9,6.9,0,0,1,0,1.7c1.66.32,1.49,1.53,3.4-.34.6-.62.34-1.13.68-2,.31.2,1-.15,1.35,0s.58,1.42.69,1.7c1.34-.65,3.1-.81,3.73-2,.15-.31,1-4.84,1-5.1-.06-.57-.93-1.09-.68-2.38,0,0,1.54-2.69,1.7-3.06-1.18-.32-1.46-.76-2.72-1,.18-.12-.2-.92,0-1a5.25,5.25,0,0,1,1.7-.34,9.48,9.48,0,0,1,0-2.72c.08-.29,1.1-.82,1.36-1-.8-1.69-1-2.67-1.7-4.42.73-.36,1.37-.24,2-.68.26-.2.7-1.25,1-1.36,1.07-.44,2.09,0,3.06-.34.62-.23,1-1,2-1,2.09,0,2.53,2.16,3.06,3.74a4.92,4.92,0,0,1,1.36-.68,13.59,13.59,0,0,1,.34-4.09c.06-.4-.32-.87-.34-.68v-1c1.17-.92,2.22-1.8,3.4-2.72-.13-.65.17-1.4,0-2l-.68-.68s-.31-.61-.34-.68c-1.11.16-2.35.67-3.4.34-.17-.05-.75-.89-1-1a10.1,10.1,0,0,1,2-2.72c-.46-1.78-1.65-6.82-1.36-8.5.21-1.32,2.31-2.33,2.72-3.4,1-2.69-.84-8.85-2.38-9.52s-3.5.41-5.1-.34c-.51-.24-.34-1.23-.68-1.7-.7-1-2.13-.65-3.06-1.36-1.09-.82-2.25-5-3.41-5.44-.36-.14-.72.21-1,0-.62,3.39-.5,3.25-3.74,4.08a15.83,15.83,0,0,0-.68-1.7c-.27-.37-1.6-.67-1.71-1-.39-1.27.74-1.94.34-3.4-.14-.51-1.32-1-1.7-1.36,0,0,.31-.64.35-.68a11.78,11.78,0,0,1,2.72,0c.68.22,1.17,1.82,2,2,4.31,1.1,3.41-2.08,1.7-3.4a38.22,38.22,0,0,0-3.4-2l-.68.34Zm-15.65,44.2s-2.41.57-3.4.68c.06.33-.32,1.23.34,1a17.19,17.19,0,0,1,1,1.71c1.91-.3,1.75.63,3-1.37l.68-.34c.08-.27-.2-1.41-.34-1-.57-.22-.23-.63-1.36-.68Zm-111.53,46.25c0,.18,0,4.42,0,4.42-.17.25-.86.41-1,.68s-.16,1.54-.34,1.7c-.51.41-.85.18-1.7.34.43.22-.8.4-1,.34s-.33-.57-.68-.68c.24-1.79.68-3.77-1-4.42-.68-.27-.78.48-1.7.34-.28,0-1.08-1-1.36-1-2.68-.59-3.84,1.21-5.1,2-.34-.22-.66.14-1,0-.52-.2-.88-1.48-1.36-1.7a8.18,8.18,0,0,0-5.44.34c-1.62.87-.76,4.51-1.7,6.12-.15.24-2.35,2-2.72,2.38a16.34,16.34,0,0,0-2-2c-3.55-1-5.73,5.06-7.48-1.36a4.88,4.88,0,0,0-2-.34l-.34.68c-1.13.72-2.06,2.2-.34,3.06.29.14-.48.37-.34.68-.74.19-1.64.82-2.38.68s-.76-1.68-2.72-1.36c-.48.07-2.85,2.33-3.06,2.38a15.67,15.67,0,0,1-3.4-.34l-.34,1c-2.69.7.22-1.38.68-1.7-.1-.52-.36-1.58-.34-1.7-1.37-.21-1.77-.15-3.06-.34-.1.45-.4.46-.68.68.35,1.38.34,2,.68,3.06-.86.39-2,.21-2.38,1a12.24,12.24,0,0,0-.34,3.06c-.69-.21-.68.54-1.36.34-.45-.14-.7-1.51-1.36-1.7-1.78-.53-3.38-.11-5.1-.34-.28,3.42-1.86,5.63-3.4,7.82-.16-.12-.86,0-1,0a8.51,8.51,0,0,1-1-3.4c-.58-.16-.53.26-.68-.34-.35.18-1-.13-1.36,0-.16,0-.33.55-.68.68,0,0,0,1.59.34,1-.09.33-.34,1.36-.34,1.36-.79.12-1.65-.25-2.38,0-.49.16-.88,1.49-1.36,1.7-2.49,1.09-4.66-.35-6.46-1-.73,1-1.24,1.17-1.7,2.72a19,19,0,0,0,0-2.72c-.07-.2-.63-.25-.68-.68-.49.17-1.23-.18-1.7,0-.27.09-.9.75-1.36,1-.33-.21-.68-1.18-1-1.36a15.18,15.18,0,0,0-4.76-.68c-.07,0-.28.62-.34.68-2,1.74-1,1.33-.68,3.4l.34,1.36s1.59,0,1-.34c.39,0,.95,0,1.36,0a10.26,10.26,0,0,0,0,1.36c-.81-.16-.57.49-1.36.34-.28-.05-1.09-1.3-1.36-1.36-1.06-.22-4.7.93-5.44,1.36-.34.19-.1.78-.34,1-.42.39-1.17.34-1.7.68-.23.13-.47.94-.68,1s-.84-.1-1,0c-.25-.63-.52,0-.68-.34a4.43,4.43,0,0,1,0-1.36c-.6-.14-.2-.13-.35-.68a8.19,8.19,0,0,1-2,0c-.75,1.05-1.59,2.48-2.72,3.06-1.64.84-5.52,1-6.46,2.38-.36.5,0,.85-.34,1.36-.59-.21-.26.38-.34.68-.87-.26,0,1,0,1,.9.27,1.11-.36,2-.34,0,0,0,1,0,1-.84.25-.76.11-1.7.34.51.35-1,.32-1,.34l-.34-1.7c-.23-.14-1.6.18-1.7,0-.28-.56,0-2.07,0-2.72-3.64-.81-2.47-.58-4.08,2.38-.06.11-1,1-1,1-.27,1.21.5,2.29.34,3.06-.08.36-.9.68-1,1a5.38,5.38,0,0,0-1.7,0,16.42,16.42,0,0,1,.34-2.38c-.29-.23-.6-.2-.68-.68-.65,0-2.38.34-2.38.34s-1,.28-1,.34c-.48.46-.21,1.9-.68,2.38-.68.67-2,.41-2.72,1-.23.19,0,.87-.34,1s-1.23-.19-1.7,0c.35-.17-.68-.68-.68-.68l.68-1c1.21-.37,2.4-.18,3.06-1,.07-.08.68-1,.68-1a6.87,6.87,0,0,0-.34-2c-3.22,0-5.08.39-6.8,2.72-.28.37-.28,1.18-.68,1.36-1,.46-2.23-.15-3.06.34-.43.25-1.72,4.3-1.36,5.44.08.24.85.66,1,1a9.28,9.28,0,0,1,2,0c0,.07-.41.66-.34.68-2.6.46-2.69,1-3.74,3.06-3.39,0-3.92.28-4.76,2.72v.68c-.69.56-2,.17-2.72.68-1.67,1.16-.34,5.92-.34,8.84,1.48.41,3.58,1.1,4.08,2.39.14.36-.22.68,0,1-.8.56-5.29,4.55-5.44,5.1-.32,1.09.25,1.8.34,2.73.45,0,1.13.51,2,.34.72-.15.89-1.06,1.36-1.37,0,0,1.51.54,1,.69.21.16.9.44,1,.68.38.76.08,1.33.34,2.38-.47.08-.5.64-.68,1-.37-.18-.77-.95-1-1-.72-.25-1.64.1-2.38,0-.36,1.1-1.53,3.13-1.36,4.42,0,.21,1,.87,1,1,.51,1.14-.09,1.16,0,2.38-.43-.23-.28.52-1,.34-.08,0-.38-.61-.68-.68,1.35-.51-1.9-.51-1-.34l-.34,1.36c1.36.82,3.84,1.42,4.76,2.72.51.72.35,1.82,1,2.38,1.06.88,2.38.36,2.72,2,.38,1.94-1,2.5-.68,4.08.15.86,1.7,1.35,2,2a16.29,16.29,0,0,1,.68,2.72c.14,1.53-.39,5.33.34,7.14h.34c1,.51,1.77,2.39,2.72,2.72h.68c.17.15.11.89.34,1,.76.38,1.6-.1,2.38.34s3.38,4.23,2,5.44c1.69,1.33,5.11,2.2,4.76,5.44,0,0-.89,1.4-1,1.7.43-.22.27.52,1,.34.37-.09.47-1,.68-1.36a4.43,4.43,0,0,0,1.36,0c.71.69,3.48,2.76,1,3.4-.24-.3-.68-1.24-1-1.36s-1,.16-1.36,0a4.93,4.93,0,0,1-1,1s0,1.24.34.68a12.29,12.29,0,0,1,.34,1.36c.68-.32.34,2.38.34,2.38a10.34,10.34,0,0,1,5.1-.68,3.89,3.89,0,0,1,.34-.68c.31-.08,1.67.26,1.36.34a23.16,23.16,0,0,0,1.7,2.38c-1.56.47-3.38.52-3.74,2,0,.17.09.86,0,1-.21.34-1.23.63-1.36,1s.17,1.21,0,1.7c.62-.29,1.14,0,1.7-.34s1.12-1.58,1.7-2c1.15-.93,2.28-1.44,3.4-2.38a27.91,27.91,0,0,0,2.72,3.74c.42.42,1.82.83,2,1.36.4,1-.41,1.27-.34,2l.68,1c.5,2.49.14,1.87,1,3.74.38-.15,1,.1,1.36,0,.94-.25,2-1.77,2.72-2.38,2.57,2.32,4.72,4.18,8.85,2-.23,2-.45,4,1.36,4.76.54.23,1-.09,1.36.34s.86,2.68,1,3.06c3.85-.57,4.87-.1,7.48,1.36.52-.33,1.91-1.85,2.72-1.7,0,0-.27,1.65-.34,2a16.44,16.44,0,0,1,2,1.36c.27.53-.14,1.45,0,2s1.62,1.66,1.7,2c.13.79-.5,1.27-.68,2.05.93-.22,2.36-.86,3.4-.69s1.68,1.61,2.38,2c.54.34,1.09,0,1.7.34.92.54,2.63,4.1,3.06,5.44a20.25,20.25,0,0,1,5.1-1c.42,0,1.16.68,2,.34v-.34c.55-.28.6-1.08,1-1.36s1,0,1.7-.34c1,3.37-.32,2.15,3.06,3.06a5.49,5.49,0,0,1,.68-1c.38-.15.65.2,1,0,.29.24.69,1.18,1,1.36.94.51,3.69.56,4.76.68.12.77-.27,1.65,0,2.39.52,1.44,6.83,2.61,8.84,3,.15.6-.16,1.1,0,1.71,0,0,3,3,3.06,3.06,3,1.34,3.08-1,4.42-1.36,2.72-.84,3.72.77,4.76,1.36.55.3,1.07,0,1.7.34.19-.5.56-.46,1-.68-.26-1.91-.17-3-.34-4.08.54.13.82-.19,1.36-.35.3.53,1.14,2.51,1.7,2.73,1.92.72,4.45-.64,5.78-.68,2.29-.1,2.57.75,3.74,1.7,3.19-1.41,3.46-.08,7.14-.68.34-.07,1.84-1,2-1,1.18-.2,2.33.46,3.06.33.32-.06,1-.85,1.36-1-.16-.61.15-1.11,0-1.7,0-.13-3.4-5,1-3.75.15,0,.76,1,1,1,.7.12,1.05-.41,1.36-.34-.36-.28.28-1.47.34-1.71-.38-.2-.14-.59-.34-.68a7,7,0,0,0-1.7-.34c0-.69-.37-1-.34-1.36.09-1.22,2.15-1.84,2.72-2.72.43-.68.24-1.65.68-2.38s4.52-2.61,6.12-2.38c.16,0,.95,1,1,1,.36.11,1-.2,1.36,0s.87,1.49,1.36,1.69c.26.1.76-.17,1,0,.29-3.84.13-2.95,3-3.06a17.37,17.37,0,0,1,0,3.06s-1,.63-1,.68c.61,2.3-.14,1.63,1.36,3.06-.36.11-.54.63-.68.68-.54.17-1.16-.15-1.7,0,.54.21-1.31.33-1.36.34a5.54,5.54,0,0,0-.34-1c-1.7-2.5-1.27-2.38-5.45-2.38a9,9,0,0,1-.68,2.38c-.38.49-1.57.6-2,1s-.31.33-.68,1c0,0,0,1,0,1,.24,0,1.16-.15,1.36,0,0,.12.25,1.18.34,1.7-1.67,0,.13,2.67.34,3.07-1.11.87-2,1.77-3.06,2.72.19.59.43.73.34,1.36,3.54,2.07,4.24,1.7,6.12-1.7.23.27,1.13.36,1.36.67s.07.93.34,1.37c1.37,2.22,3,1.14,4.77.33a10.09,10.09,0,0,1,.34-4.75c.32.19,1-.16,1.36,0s1,1.84,1.7,2c2.56.63,2.92-1.3,4.08-2,.59-.4,1.08-.05,1.69-.34s1.18-1.31,1.71-1.71c.27.13.73-.07,1,0,.54.13,1,1.17,1.36,1.37,1.14.53,1.79.06,3.06,0a6.63,6.63,0,0,1,.68-1c.46-1.84-1-2.75.34-3.75.35.16,1-.13,1.36,0s.62,1.42,1,1.7c1.82,1.33,3.3,0,4.76-.68,0-1,0-2.07,0-3.06-.78-.31-2.8-.92-3.06-1.7-.14-.38.16-1,0-1.36.88.25.75-.56,1.7,0,1.12.66.45,2.21,2.72,2,1.33-.1,2.59-1.59,3.06-2.72,0,0,.84-.45.34-.68a2.37,2.37,0,0,1-1-2.38c0-.15.92-.56,1-.68.79-1.06.61-1.89,1-3.4-.3-.23-.61-.2-.68-.68a5,5,0,0,1-1,0v-1c4.65,2.16,5.16.26,9.52-1a12.85,12.85,0,0,1,.34-2.72c.14-.39,1.22-.87,1.36-1.36.18-.68-.14-1.35,0-2-.31-.24-.57-.22-.68-.68a5.69,5.69,0,0,1-1.7,0c-.23-.1-.54-1.28-.68-1.36.32,0,.8-.52,1-.68,1.88,1.27,1.15,1.11,3.74,1-.09-.82.41-.55.34-1.36,0-.35-1-1.22-1-1.36-.23-1.2.54-1.51.68-2s-.18-1.4,0-2,1.26-1.41,1.7-2c-.15-.24,0-.77,0-1-.19-.77-1.74-1.32-2.38-1.7.83-2.84,1.87-3.75,2.38-7.14-.29-.06-.9-.66-1-.68-2-.46-3,1.61-4.08,2.38a5.84,5.84,0,0,0-.68,1c-.15-.69-.38-2.31-.68-3.4-.09-.28-1-1.08-1-1.36-.33-2,1.66-2.29,2-3.74v-.34c-.06.25-.43-1-.34-1.36.12-.55,2.78-5.23,1.36-6.12-2-1.28-3.25.73-4.42,1-.21,0-.85-.09-1,0-.09-.37-.64-.54-.68-.68-.37-1.07,0-2.94,0-4.08.18.62.34-.34.34-.34-1.17-2.56-.93-1.91-3.74-1.7-.31,1.18-1,5.54-2,6.12-.82.45-1.94,0-2.72.34-.16.06-1,1-1,1-.75.16-1-.43-1.36-.34.39,0-.34-1-.34-1-.1-1.23,1.25-3.35,1.36-4.08.17-1.36-.51-2.5-.68-3.4l.34-1c.63.14,1.4-.21,2,0,1.59.53,1,3.57,3.74,2.38s1.07-4.1.34-5.78c-1.79.14-2.55.11-4.08.34.67-2.31.44-2.06,0-4.08a11.86,11.86,0,0,1-1.7-.68s-2.27,2.2-1.7,2.38c1.46.45.67,4.33,0,5.44-.5.8-2.15,1.32-3.06,1.7.25-4.35-.13-3.42,2.72-6.12-.42-1.26-.31-1.57-.68-2.72.17-.14.92-.49,1-.68.3-.66-.29-1,.34-1.36,0,0-.63-1.78-.68-2,.34.21,1,.11,1.36.34s.47.94.68,1c.37.11,1.63-.26,1.36-.34.06-.21.94-.49,1-.68.35-1-.36-2.72,0-3.74.25-.76,2.1-.44,1.7-2.72-.14-.77-1.52-1.55-2-2,1-2.21,1-1.33.34-3.4-.5-1.53-1-3.18-2.38-3.74-3.72-1.47-4.21.63-3.74,3.74-.25.18-1.63.77-1.7,1v.68h-.68c-.26-.92-.07-1.57-.68-2l-.34-.34c.16-.16-.1-.8,0-1h.34c1.3-.66,1.83-1.95,2.72-3.06-3.35-.61-3.35-2.11-4.42-5.79.8-.38,2.54-1.66,3.4-1.7,1.8-.08,1.38.95,2,1.36s1-.06,1.7.34a11.41,11.41,0,0,1,1.36-1c-.26-1,.09-1.68-.34-2.38-.06-.08-1.36-.68-1.36-.68-.32-1.28.94-1.25.68-2.72-.14-.77-1.33-1.17-1.7-1.71s-.09-.94-.34-1.36c-.6-1-2.08-1.48-3.06-2,.14-.67-.19-1.41,0-2.05.1-.37,1.29-1.2,1.36-1.7.19-1.89-1.8-2.9-3.06-3.4-.69-.27.93-.75,1.36-.68l.68.68c3,.81,2.46-2.11,2.38-3.74-.44-.07-.49-.61-.68-.68-1.66-.57-3.82,1.31-4.76,1.7l-.68-1c.06-.2.94-.48,1-.68a7.34,7.34,0,0,0,0-2c.52.23.19-.55,1-.34.13,0,.5.91.68,1,1.73,1.08,2.44.23,3.74-.68-1.39-3.45-1.43-4.81-5.44-2.72a6.94,6.94,0,0,0,0-1c1.35-.59,2-.49,2.72-1.7.08-.16.49-.25.68-.34-.16-.37.12-1,0-1.36-.24-.67-1.54-1.3-1.7-2-.44-2,.29-3.43,0-5.44.33.19.67-.57,1.36,0s.09,3.42,0,4.76c.64-.09,1.23.44,2.38,0,.1-.05.24-.66.34-.68,0-.31,1-.88.68-2,0-.08-.73-.77-.68-1,.06-.5,1.51-.84,1.36-2.72-.1-1.11-1.25-.78-.68-2.38,0-.09.9-.85,1-1,0,0-.08-.88-.34-.34-.21-.12-.38-1.24-.68-1.36a9.91,9.91,0,0,0-2.72,0v-.68h.34a6.93,6.93,0,0,1,.34-1.7c1.45-1.29,3,.15,4.76-.34.19-.06.69-.87,1-1a4.43,4.43,0,0,1,0-1.36,11.44,11.44,0,0,0-3.74-3.06,7,7,0,0,0,0-2c-.41-.67-1.08-.21-1.7-.68-.78-.57-1.12-2.41-1.36-3.4-.38-.08-.55-.64-.68-.68-4.24-1.47-2.66,3.45-2,5.1-.6.2-.63,0-1,.34-1.32,1-1.15.9-3.06.34.25-.41-.72-.47-.34-.68,1.91-1.16,1.12-3.34,1-6.12l1-.34c1.71-3,.32-2.83-2.72-2.72.23,3.41.72,2.44-2,3.06-1.78-2.58-2.46-3.06-5.78-3.06a12,12,0,0,1-.68,1.7c.12.2,1,.88,1,1-.19.13,0,1.45,0,1.7a8.1,8.1,0,0,0-2,.34c-.49-1.92-.87-4.86-1.69-6.46a10.34,10.34,0,0,0,2.38-2.38,5.41,5.41,0,0,1-.34-1.7c-.24,0-1.75-.23-1.36,0-1,.55-1.1.08-1.7,1a12.21,12.21,0,0,0-.68,2c-.4-.1-1.34-.35-1.37-.34-.2-.28-.4-.84-.68-1-.37.24-.55-.59-.68-.68,2.53-1.42,2.61-1,2-3.74-.43-.08-.48-.62-.68-.68-.42-.15-1.59.28-1.36.34h-.68c-.5.17-.45,1.5-1,1.7-.37.12-1-.19-1.36,0-.42-1.58-1-3.9-2.38-4.42-.37-.15-.69.21-1,0-.17.27-1.05.52-1.36.68Zm142.82,17s.24,1,.34,1.36c-.38.07-.55.63-.68.68a16.51,16.51,0,0,1-2.72.34c-.26,3.17-1.17,4.61-1,7.14-1.36-2.54-2.32-2.34-4.43-.68-.32-.4-.57-1.45-1-1.7-1.1-.62-5.95-.3-7.82-.68-.09.36-.64.53-.68.68-.44,1.24,0,3.42,0,4.76l-.68.34c-.25-.51-.64-.68-1-1,.88-2.92.09-6.8-3.41-4.42-.43.29-.3,1.35-.68,1.7a7.46,7.46,0,0,1-1.7.68c.25.95-.09,1.59.34,2.38.66,1.2,3.61,1,4.08,2.38.21.57-.21,1.12,0,1.7a4.87,4.87,0,0,0-1,0,6.77,6.77,0,0,1-2-3.06c-1.14-.16-3,.07-4.42-.34-.11,0-.81-1-1-1-1.28-.21-1.73.8-3.06.34-.14-.05-.32-.61-.67-.68,1.78-1,1.63-.85,1.35-3.4l-1-.34c-.28.4-.78.33-1,.68s-.09,1.5-.34,1.7c-.8.64-2-.14-2.72,1a29.93,29.93,0,0,0-1,3.74c-6.57-1.93-4.13,3-8.16,3.06,0,0-.85-.32-1-.34v-.68a6.05,6.05,0,0,1,1.7,0c-.16-.11.29-.59.34-.68-.34-.27-.52-.18-.68-.68-1.37-.25-3.43-.86-4.42-.68-.63.11-1.51,1.38-2,1.7-1.27.73-2.64.68-4.08,1.36-.25.11-.69,1-1,1-1.15.21-1.42-.67-2.38-.34a6.23,6.23,0,0,0-.68,1c-1.22,1.55-.93,2.3,0,4.08-.78.19-1.54.37-2.72.68.16-.36-.14-1,0-1.36a7,7,0,0,1,1-.68c-.21-.58.2-1.12,0-1.7-.07-.2-.87-.69-1-1a8.86,8.86,0,0,1-2,.34c-.16,1.36-.53,3.73-.68,5.1a9.93,9.93,0,0,0-2,0c.17.48-.18,1.21,0,1.7s1.84,1.06,2.38,1.36c0,.06-.14,1.9-.34,1.36-.21.35.14.63,0,1-.07.18-.84.7-1,1h-.68a14.38,14.38,0,0,0-1.36-2.72c-1.53-2-1.26-.83-3.74-1.7-.11,0-.58-1-.68-1-.59-.21-1.13.21-1.7,0-.18.36-1,.77-1,1-.33,1,.07,2-.34,2.72-.68,1.18-2.31.72-3.4,1.36-1.33.77-2,3.75-2.38,5.44-2.71-1.27-1-1.27-3.74,0,.12.59-.17.78-.34,1.36a4.94,4.94,0,0,0,3.06,1.36c-.12.05-.08,1.25-.34,1.36a5.7,5.7,0,0,1-1.7,0c-.19.39-1,1-1,1.36-.32,1.37.6,2.79.68,3.74,0,.68-.37,1-.34,1.37h-.68c-.71-.25-1.34-2.18-2-2.39-1.1-.31-1.2.38-2,.34-.87,2.94-1.11,2.7,1,4.43-.69.61.15,4.44.34,5.78-.51-.5-1.18-.87-1.7-1.37.7,0-1.86-.28-1,0-.39.33-1,0-1.36.34v.69c-1.06,3.06,1,3.43,2,6.12-.12.1,0,.87,0,1-.17.41-1.81.89-2,1.36-.17.3.05,1,0,1.36s-1,1.59-1,1.7c-.17.64.15,1.38,0,2a16.1,16.1,0,0,1,2.38,2c.37.55.23,1.25.68,1.7s1.28.45,1.7,1c1,1.38,1.88,4.91,2.38,6.8a5.14,5.14,0,0,1,1.7.34c-.15.12-.25.87-.34,1-.32.44-1.46.58-1.7,1-.62,1.05.12,3.7,0,5.44.63.25.16,0,.34.68a17.27,17.27,0,0,0,3.74,0c-.15.37.09,1,0,1.36-.3,1.07-2.29,1.86-1,3.74.18.27,1.26.36,1.36.68.48,1.62-1.15,2.52.34,3.4a13.42,13.42,0,0,0,2.38.68c-.14,1.21-.7,2.82,0,4.08.12.21,1,.46,1,.68.21.8-.32,2,0,2.72.07.19.5.17.68.34.91.81,1.8.68,2.72,1.36.33.24.1.63.34,1,1.33,2.16,3.14.94,4.76,0a43.45,43.45,0,0,1-.68,5.44c.24.06,2,.5,1.7.34.94-.62,2-.4,2.38-1.7.09-.36-.18-1,0-1.36s1.23-.13,1.36-.34c.13.28-.07.73,0,1s1,.91,1,1c.12.54-.46,2-.34,2a2,2,0,0,0-.68.68,5.78,5.78,0,0,1,0,1,6.86,6.86,0,0,0,4.76.68,6.89,6.89,0,0,0,0,1.7c-.28.4-1,.68-1.36,1a5.62,5.62,0,0,1,0,1.36c.49.19.45.56.68,1,1.86-.35,2-.32,3.06-1a9.57,9.57,0,0,0,1.7-1c.6-.87.14-1.87,1-2.38.43-.25,1.2.13,1.7,0l.68-.68c1.78-.41,1.13.14,2.38.34a7.74,7.74,0,0,0,0,2c-.93.34-1.93.69-2.72,1,.07.56.34,2.38.34,2.38a4.22,4.22,0,0,0,2,.34c.47-.09,1.24-1.08,1.7-1.36,2.12-1.34,3.34-.53,5.78-1.36.14-.05.31-.61.68-.68-.15-.75.31-1.71,0-2.38h-.34c-.62,0-1.24-.77-1.7-1a9.93,9.93,0,0,0,0-2c.31-.26.49-1,1-1h.34c.64.61,1.45,2.13,2.38,2.38.39.1,1-.15,1.36,0-.4,1.24-.27,1.72-.68,3.06,1.23.53,3.27,1.67,5.1.68,1.65-.9.49-2.22.34-3.06s.39-1.26.34-1.7a20.46,20.46,0,0,0,6.46-1.36c.11-.05.25-.66.34-.68h.68c.5-.83,0-1.95.34-3.06.25-.74,1.39-1.12,1.7-1.7s0-1,.34-1.7c1.47.05,4.58.2,6.13-.68.69-.4,1-1.57,1.7-2,.29-.23.65.13,1,0,2.22-.86.72-3.07,0-4.08,1.18-.32,3.38-.65,3.75-1.7.18-.55-.27-1.56,0-2h.34c1.36-.69,2.32-2.05,3.4-3.06.35.16,1-.14,1.35,0,.84.29,1,2,3.07,1.36.24-.09.64-.85,1-1-.32-.52,0-1.25-.34-1.7-.16-.21-1.88-.95-2-1.36s.21-.69,0-1c3.19-.84,3.8-.69,3.4-4.42,1.14-.72,2.26-.92,3.4-1.7.35-.26.27-.76.68-1-.25-1.6-.66-3.71.68-4.42,2.48-1.33,3.26.78,4.42,1,1.42.27,1.59-.53,2.38-.68-.09-.82.41-.56.34-1.36,0-.32-.76-1.09-.68-1.7,0-.16,1-1,1-1,.15-.41-.19-.65,0-1-.54-.26-1.46-.71-2-1,1-2.15.86-2.88,0-5.1a34.77,34.77,0,0,0,3.4,1.7c-.09,0,1.71,0,2,0,.25-.59,1.29-3.81,1.7-4.08.87-.63,2.13-.13,3.06-.68.72-.45.29-1.93,0-1.7.15-.56-.18-1.18,0-1.71,0-.14.6-.32.68-.67a7.59,7.59,0,0,0,4.76-.69c.26-2.44.28-3.46-1.36-4.76-.17-.12-1-.48-1-.67-.26-.75.12-1.61,0-2.38.54-.16.55.27.68-.34.56.24,1.13-.26,1.7,0s.28,1.43.68,1.69a3.35,3.35,0,0,0,5.1-1.35c.4-1.32-.18-1.29-.34-2.38h-.68l.34-2.73a8.87,8.87,0,0,1-2,0c-.21-.58.2-1.12,0-1.7-.09-.22-.89-.47-1-.68-.36-.58,0-1.05-.34-1.7.37-.2.61-.92,1-1,.22-.06.8.15,1,0,.62-.45,1-2.13,1.7-2.38s2.23,0,3.06,0c.53-1.83,1.15-3.3,1.7-4.76-.26-.17-.36-1.18-.68-1.36-.66-.38-1.53-.35-2-.68-2-1.27,2.23-2.27,3.06-3.06.32-.32,0-1,.34-1.36-.37-.08-4.62-.93-4.76-1s-1.16-2.66-1.36-3.06a8.6,8.6,0,0,0,3.06-1.7c-.5-.44-.47-1.28-1-1.7s-.78-.17-1.36-.34c0-.06-.26-1.24-.34-1.7,1.06-.5,1.83-.85,2.72-1.36-.18-.49.17-1.22,0-1.7-.09-.22-.89-.48-1-.68a18.64,18.64,0,0,1-1-2.72c-.18.56-.34-1-.34-1,1.45-.85.39-2.85-1.36-2.72l-.68.68c-.65.32-1.13.43-1.7.68,0,.05,0,2.21,0,2,.2.42.86.69,1,1,.34.72.13,1.4.34,2-.76-.66-1.35-1-2-1.7-.59.2-1.13-.21-1.7,0s-1,1.55-1.36,1.7c-.59.2-1.13-.21-1.7,0,0-.07-.34-.68-.34-.68-.17.52-.34-1.29-.34-1.36s1-.6,1-.68c.24-.86-.42-1.29-.34-1.7h-.68c-.46.15-.9,1.72-1.36,2-.24.15-.79-.06-1,0s-1.12.94-1.36,1a20.15,20.15,0,0,1-6.46.68,10.67,10.67,0,0,0-1,3.06c-.06,0-1,0-1,0-.08-.82-.34-2.43-.34-3.74a12.16,12.16,0,0,1,2-.34,21.65,21.65,0,0,0-.68-5.1c1.6.3,1.76.51,3.4,0l.34-.68a8.25,8.25,0,0,1,2.38,0c-.07-.32.47-.67.34-1.36-.27-1.42-2.23-2.72-3.06-3.74-.36.5,0,.85-.34,1.36s-.66.05-1,.34-.7,1.29-1,1.7c-.07-.1-.93-.24-1-.34-.3-.29-.21-.91-.34-1.36-.37-.07-.54-.64-.68-.68-1.27-.43-2,.45-2.72.68l-.34-.34a12.12,12.12,0,0,0-.34-3.74,4.43,4.43,0,0,1-1.36,0c-.28.44-1.18.8-1.36,1.36Zm-112.21,6.12c-.17.45-.61.47-1,.68a11.57,11.57,0,0,1,.34,2c.56.06.33.41.68.68.16-.15,1.13,0,1.36,0-.19-1.38-.16-2.15-.34-3.4Zm-3.74,4.42a4.93,4.93,0,0,1-1,1c.76,1.56,1.07,3.54,3.4,2.72.66-.24.57-1,1-1.36-.34-.22-.66.14-1,0-.82-.32-.93-2.11-1.7-2.38Zm114.93,3.74c-.18.36-.95.77-1,1a15.16,15.16,0,0,0-.34,2.72c-1.17.39-2.33.91-3.4,1.36.86,1.38,1.27,2.62,2.72,3.4,6.15,3.32,3.08-5.23,2.72-8.5ZM1586,411.82v.68a3.65,3.65,0,0,0-.33,1.7,14.29,14.29,0,0,0,1.36,2.38h.68c.18.16.43.94.68,1s1-.17,1.36,0c.08-.2,1-1.36,1-1.36.1-.83-.61-.7-.68-1-.23-.83.4-1.31.33-1.7-.12-.64-2.81-2.44-4.42-1.7Zm66,5.78c1,1.9,2,3.12,2.38,5.78.34.06.85.65,1,.68,1.9.35,3.11-1,4.08,1.36.58,1.42-.08,4,1.7,3.06.51-.28.59-3.08.68-3.74a11.31,11.31,0,0,1-5.44-3.06c.09-.25.35-1,.34-1a52.65,52.65,0,0,0-4.76-3.06Zm-47.26,16c.57,1.24.55,3.21,3.06,2.38.24-.08.65-.85,1-1a6,6,0,0,1,0-1.7c-.32-.24-1.12-1.26-1.36-1.36s-.69.22-1,0c-.47.57-1.23,1.11-1.7,1.7Zm7.48,28.23a3.49,3.49,0,0,1,0,1c.36.17,1,.94,1.36,1,3.63.81,2.15-2.62,1.7-3.74a5.16,5.16,0,0,1-1.36,0c-.43.54-1.29,1.13-1.7,1.7Zm-3.4,26.52a9.27,9.27,0,0,1,0,2c3.35.85,2.12,1.72,3.06-1.7-.31-.24-.58-.22-.68-.68-.57-.17-.92-.06-1.36-.34-.08.19-.82.52-1,.68Zm5.78,7.82a32.12,32.12,0,0,0-3.4,4.08l.68-.68a12.08,12.08,0,0,1,4.08-.68c-.18-1.09-.22-1.47-.34-2.72-.06,0-1,0-1,0Zm-8.84,2c0,.12-.26,1.18-.34,1.7,2.31,1.82,6,4.11,3.74-1.36-1.44-.2-2.11-.15-3.4-.34Zm-172.06,2c.49.14,1.87,1.91,0,1.36-.47-.14-.94-1.63,0-1.36Zm3.06,0c.06.19,1,.48,1,.68.18.62,0,.85-.34,1,0,0,.58,1.64.68,2-.5-.35-.75-.16-1.36-.34-.08-.45-.64-.76-.68-1-.18-1,.58-1.78.68-2.38Z"/></g><path class="cls-5" d="M1626,545h1.32c1.36,0,1.8-.39,1.8-1.19s-.33-1.09-1.61-1.09H1626V545Zm0,4.08h-1.12v-7.27h2.78c1.74,0,2.59.64,2.59,2.07a1.9,1.9,0,0,1-1.91,2l2.08,3.19h-1.23l-1.93-3.16H1626v3.16Zm1.34-8.92a5.29,5.29,0,1,0,5.15,5.26,5.12,5.12,0,0,0-5.15-5.26Zm0-1a6.31,6.31,0,1,1-6.4,6.28,6.29,6.29,0,0,1,6.4-6.28Z"/></g></svg>