<?xml version="1.0" encoding="utf-8"?>
<!-- Generator: Adobe Illustrator 24.2.0, SVG Export Plug-In . SVG Version: 6.00 Build 0)  -->
<svg version="1.1" id="Layer_1" xmlns="http://www.w3.org/2000/svg" xmlns:xlink="http://www.w3.org/1999/xlink" x="0px" y="0px"
	 viewBox="0 0 2071.6 811.6" style="enable-background:new 0 0 2071.6 811.6;" xml:space="preserve">
<style type="text/css">
	.st0{fill:#522D80;}
	.st1{fill:#FFFFFF;stroke:#FFFFFF;stroke-width:8;stroke-miterlimit:10;}
	.st2{clip-path:url(#SVGID_2_);}
	.st3{fill:#F26735;}
</style>
<g id="Layer_2_1_">
	<g id="Layer_1-2">
		<path class="st0" d="M1224.7,423.4v-53.7c10.9-0.6,19.1-2.2,24.6-4.9s10.3-7.2,14.3-13.5c4-6.3,6.8-14.3,8.3-23.8
			c1.2-7.2,1.8-19.6,1.8-37.3c0-28.9,1.3-49.1,4-60.5c2.7-11.4,7.5-20.6,14.5-27.5c7-6.9,17.2-12.4,30.6-16.4c9.1-2.7,23.4-4,42.9-4
			h11.8v53.4c-16.5,0-27.2,0.9-31.9,2.8c-4.3,1.6-8,4.6-10.4,8.5c-2.2,3.8-3.4,10.3-3.3,19.6c0,9.4-0.7,27.2-2,53.4
			c-0.7,14.8-2.7,26.7-5.8,35.9c-3.1,9.2-7.1,16.7-12,22.7c-4.8,6-12.3,12.1-22.2,18.5c8.2,4.6,15.5,10.6,21.6,17.8
			c5.9,7.3,10.2,15.7,12.9,24.7c3,9.7,4.9,22.7,5.8,38.9c1,24.7,1.6,40.5,1.6,47.4c0,9.8,1.2,16.7,3.6,20.6c2.6,4,6.4,7.1,10.8,8.8
			c4.8,2,15.3,3,31.4,3v53.7h-11.9c-20.1,0-35.5-1.6-46.3-4.8c-10.3-2.9-19.6-8.4-27.2-16c-7.5-7.6-12.6-17.2-14.9-27.6
			c-2.5-10.9-3.8-28.2-3.8-51.8c0-27.4-1.2-45.2-3.6-53.4c-3.3-11.9-8.2-20.5-14.9-25.6C1248.5,427.1,1238.4,424.1,1224.7,423.4z"/>
		<path class="st0" d="M1934,423.4c-10.9,0.6-19.1,2.2-24.6,4.9c-5.5,2.7-10.2,7.2-14.2,13.5c-3.9,6.3-6.7,14.3-8.4,23.8
			c-1.2,7.2-1.8,19.5-1.8,37.1c0,28.9-1.3,49.1-3.9,60.6s-7.4,20.7-14.4,27.6c-7,6.9-17.3,12.4-30.8,16.4c-9.1,2.7-23.4,4-42.9,4
			h-11.8v-53.6c15.9,0,26.4-1,31.3-3c4.5-1.6,8.3-4.7,10.8-8.7c2.3-3.8,3.5-10.2,3.6-19.3c0.1-9.1,0.7-26.5,1.9-52.1
			c0.7-15.5,2.7-27.9,6-37.2c2.9-8.6,7.3-16.6,13.1-23.7c5.9-6.9,13-12.7,20.9-17.1c-11-7.1-19.1-14.1-24.2-21
			c-7-9.8-11.8-22.3-14.3-37.5c-1.7-10.4-2.9-33.4-3.6-68.9c-0.2-11.2-1.2-18.6-3-22.4c-1.8-3.7-5.2-6.6-10.1-8.6
			c-4.8-2-15.7-3-32.5-3v-53.5h11.8c20.1,0,35.5,1.6,46.3,4.7c10.2,2.9,19.6,8.4,27,16c7.4,7.7,12.5,17.3,14.9,27.7
			c2.6,11,3.9,28.2,3.9,51.8c0,27.3,1.1,45.1,3.4,53.4c3.3,11.9,8.3,20.5,15,25.6c6.7,5.1,16.9,8.1,30.6,8.8L1934,423.4z"/>
		<path class="st1" d="M184.6,368.8c-22.5,0-35.4-9-45-28.5L112,284.5c-5.1-10.2-8.1-19.8-8.1-31.5c0-13.2,2.4-21.3,8.4-33.3
			l27.6-55.5c10.2-20.7,23.1-28.8,46.2-28.8h51c6.6,0,15,3.6,15,15c0,10.8-8.1,15-15,15H187c-12.9,0-15,1.2-20.7,12.6l-26.1,52.2
			c-3.9,8.1-6.3,13.5-6.3,22.8c0,8.4,2.7,13.5,6.3,20.7l25.5,51.9c6,12.3,9,13.2,22.5,13.2h48.9c6.6,0,15,3.6,15,15
			c0,10.8-8.1,15-15,15L184.6,368.8z"/>
		<path class="st1" d="M368.5,368.8c-15,0-26.7-3.6-37.2-15.3c-9.9-11.1-11.4-21.9-11.4-35.7V150.4c0-9.6,4.2-15,15-15s15,5.4,15,15
			v167.4c0,16.8,5.1,21,18.6,21h51c13.5,0,18.6-4.2,18.6-21V150.4c0-9.6,4.2-15,15-15s15,5.4,15,15v167.4c0,13.8-1.5,24.6-11.4,35.7
			c-10.5,11.7-22.2,15.3-37.2,15.3H368.5z"/>
		<path class="st1" d="M616.6,368.8c-22.5,0-35.4-9-45-28.5L544,284.5c-5.1-10.2-8.1-19.8-8.1-31.5c0-13.2,2.4-21.3,8.4-33.3
			l27.6-55.5c10.2-20.7,23.1-28.8,46.2-28.8h51c6.6,0,15,3.6,15,15c0,10.8-8.1,15-15,15H619c-12.9,0-15,1.2-20.7,12.6l-26.1,52.2
			c-3.9,8.1-6.3,13.5-6.3,22.8c0,8.4,2.7,13.5,6.3,20.7l25.5,51.9c6,12.3,9,13.2,22.5,13.2h48.9c6.6,0,15,3.6,15,15
			c0,10.8-8.1,15-15,15L616.6,368.8z"/>
		<path class="st1" d="M781.9,165.4v10.8c0,9.6-4.2,15-15,15s-15-5.4-15-15v-40.8h148.2v40.8c0,9.6-4.2,15-15,15s-15-5.4-15-15
			v-10.8H841v188.4c0,9.6-4.2,15-15,15s-15-5.4-15-15V165.4H781.9z"/>
		<path class="st1" d="M967.9,135.4h133.2c7.8,0,15,4.2,15,15s-7.2,15-15,15H997.9v46.2h73.8c7.8,0,15,4.2,15,15s-7.2,15-15,15
			h-73.8v112.2c0,9.6-4.2,15-15,15s-15-5.4-15-15L967.9,135.4z"/>
		<path class="st1" d="M349.9,628.5h103.2c7.8,0,15,4.2,15,15s-7.2,15-15,15H319.9v-97.8c0-22.5,11.4-33.9,33.9-33.9h84.3v-71.7
			H334.9c-7.8,0-15-4.2-15-15s7.2-15,15-15h99.6c10,0,16.8,1.5,24.3,8.4c8.4,7.8,9.3,15.9,9.3,26.7v61.5c0,10.8-0.9,18.9-9.3,26.7
			c-7.5,6.9-14.4,8.4-24.3,8.4h-84.6V628.5z"/>
		<path class="st1" d="M654.1,425.2c16.6,0,30,13.4,30,30v173.4c0.3,16.3-12.7,29.7-29,30h-89.2c-16.3,0.3-29.7-12.7-30-29
			c0-0.3,0-0.6,0-1V455.2c0-16.6,13.4-30,30-30H654.1z M654.1,628.5V455.2h-88.2v173.4L654.1,628.5z"/>
		<path class="st1" d="M781.8,628.5h103.2c7.8,0,15,4.2,15,15s-7.2,15-15,15H751.8v-97.8c0-22.5,11.4-33.9,33.9-33.9h84.3v-71.7
			H766.8c-7.8,0-15-4.2-15-15s7.2-15,15-15h99.6c10,0,16.8,1.5,24.3,8.4c8.4,7.8,9.3,15.9,9.3,26.7v61.5c0,10.8-0.9,18.9-9.3,26.7
			c-7.5,6.9-14.4,8.4-24.3,8.4h-84.6V628.5z"/>
		<path class="st1" d="M1086.1,425.2c16.6,0,30,13.4,30,30v173.4c0.3,16.3-12.7,29.7-29,30h-89.2c-16.3,0.3-29.7-12.7-30-29
			c0-0.3,0-0.6,0-1V455.2c0-16.6,13.4-30,30-30H1086.1z M1086.1,628.5V455.2h-88.2v173.4L1086.1,628.5z"/>
	</g>
	<g>
		<defs>
			<rect id="SVGID_1_" x="1410.3" y="234.7" width="338.2" height="323.8"/>
		</defs>
		<clipPath id="SVGID_2_">
			<use xlink:href="#SVGID_1_"  style="overflow:visible;"/>
		</clipPath>
		<g class="st2">
			<path class="st3" d="M1589.7,235.4c-0.3,0.9,0.2,1.7,0.3,2.4c-0.4,0.1-0.6,0.6-0.7,0.7c-1.2,0.4-2.8-0.3-4.1,0
				c-0.7,0.2-1.7,1.6-2.4,1.7c-1.6,0.3-2.4-0.7-3.8,0.3c-0.6,0.5-2,4.8-2.4,5.8c-0.4-0.2-0.6,0.1-1,0s-0.9-1.2-1.4-1.4
				c-3.1-1.3-3,1.3-4.4,2.4c-0.5,0.4-1.4,0.4-2,0.7l-0.3-1.4c0.4-0.4,1.6-0.8,1.7-1.4c0.1-0.4-0.2-1,0-1.4c-0.3-0.2-0.6-0.2-0.7-0.7
				c-0.7,0.1-1.3,0.1-2,0c-0.3,0.5-1.2,1.1-1.4,1.7c-0.1,0.2,0.2,0.8,0,1s-1.6,0.6-1.7,1c-0.5,1.5,0.3,2.7,0.7,3.7h-0.7
				c-0.8,0.7-1.3,1.7-1.4,2.7c0,0.3,0.9,0.8,1,1s0.2,1.2,0.3,1.4s0.8,0,1,0.3c-0.4,1.1-0.8,2.2-1,3.4c-0.2-0.1-0.8,0-1,0
				c-0.9-1.9-1.1-1.2-0.7-4.1c-0.3-0.2-1.1-0.9-1.4-1c-1-0.3-2.4,0.3-3.4,0c-0.3-0.1-0.5-1.2-1-1.4s-1.6,0.3-1.4,0.3
				c-0.4,0.7-0.9,1.4-1.4,2.4c0,0.1-0.7,0.2-0.7,0.3c-0.2,0.5,0.1,1.6-0.3,2c-0.6,0.6-1.7,0.1-2.4,0.7c-0.5,0.4-1.4,5.3-0.7,5.8
				c1,0.7,1.7,0,2.4-0.3c0.5-0.3,0.2-0.7,0.3-1.4l1,0.3c-0.2,0.8-0.3,1.6-0.3,2.4c-0.4,0.1-0.5,0.6-0.7,0.7c-1,0.4-2.7-0.3-3.7,0
				l-0.3,0.7c-0.6,0.4-1,0-1.7,0.3c0.3-1.5,0.6-3,1-4.4c-0.6-0.3-0.2,0-0.3-0.7c-1.6-0.1-3.1-0.7-4.1,0.7c-1.3,1.7-0.8,3.5,0,5.1
				c-0.7,0.8-1.9,1.8-2,3.1c-0.1,0.4,0.2,1.3,0,1.7c-0.6,0.2-1.1,0.3-1.7,0.3c0,0.8-0.2,1.6-0.3,2.4c0.5,0.1,0.9,0.2,1.4,0.3
				c0.4,0.3,0.3,1.4,0.7,1.7c-0.7,0-4.6,0.3-5.4,1s0.4,4.1,0,5.4c-0.2,0.7-1.3,1.4-1.7,2c-1.3,2.3-2.8,4.4-4.4,6.5
				c-0.3,0.4-1.2,0.7-1.4,1.4c-1.1,4.2,1,2.7,2,3.1c0.2,0.1,1.3,1.1,1.7,1.4c-0.6,1.3-2.2,3.4-1,5.4c0.2,0.4,1.2,0.6,1.4,1
				s-0.5,0.2-0.3,1c0.3,2,2.6,2,4.4,2c-0.2,0.1-1.3,1-1.4,1c-3.3,1-2.8-0.5-4.1,2.7c-1.5-2-2.7-2.5-5.8-3.1c-0.3,0.5-0.6,0.7-1,1
				c0.6,1.5,0.6,2.3,1.4,3.7c-0.7,0.4-1.4,0.8-2,1.4c-0.4,0.5-0.3,1.3-0.7,1.7s-1,0.1-1.4,0.3c-0.5,0.5-1,1.1-1.4,1.7
				c0.1,0.5,0.1,0.9,0,1.4c1.3,0.5,2.7,0.6,4.1,0.3c-0.2,0.4,0.2,0.6,0,1l-0.7,0.3c-0.7,1.1-0.4,1.8-0.7,3.4
				c0.5,0.2,0.9,0.4,1.4,0.7c1,1.3,1.5,2.4,2.4,3.7c-0.7,0.5-2.5,1.2-2.7,2c-0.2,0.6,0.2,1.1,0,1.7c1.2,0.2,2.3,0.6,3.4,1
				c0.2,0.1,0.7,0.9,1,1c0.6,0.1,1.1-0.2,1.7,0c-0.2,0.8-0.4,1.5-0.7,2.7c-0.8,0-1-0.7-2-0.3c-0.2,0-0.7,0.9-1,1
				c1.3,2.4-0.2,1.8,3.4,2c0.3,0.9,0.7,1.9,1,2.7h0.3c0.3,1.4-0.5,1.9-0.3,3.4c0.1,1.2,1.2,3.7,1.4,4.8c0.1,0.8-0.3,1.6,0,2.4
				c0,0.1,0.6,0.3,0.7,0.7c2.8-1,0.8,0.6,2.7-1.7c0.4,0.2,0.6-0.2,1,0c0.1,0,0.8,1,1,1c1.5,0.3,1.7-0.6,3.1,0s-0.2,1.7-0.3,2.4
				c-0.1,0.4,0.1,1,0,1.4c2.5,1.8,3.4,2.8,7.1,2.7c0.2-0.6,0.4-1.2,0.7-1.7c0.3-0.4,1.1-0.4,1.4-0.7v3.7c0.1,0.4,2,2.7,2.4,3.4
				c0.9-0.1,1.8,0,2.7,0c0.1-0.2,0.5-1.3,0.7-1.4c3.1-0.7,3.9,2.6,5.4,3.1c1,0.2,1.5-0.2,2.4-0.3c0.3,0.4,0.5,1.5,1,1.7
				c0.4,0.1,1-0.2,1.4,0c0.1-0.4,0.6-0.5,0.7-0.7c0.2-0.6-0.2-1.1,0-1.7c-0.8-0.1-1.6-0.2-2.4-0.3c-0.6-0.3-0.8-1.9-1.4-2h-0.7
				c-0.2-0.4,0.2-1,0-1.4c0.2-0.4,0.8-1,1-1.4c0.4,0.4,1.4,0.5,1.7,1c0.2,0.3-0.1,1,0,1.4c0.1,0.5,1.1,0.9,1.4,1.4
				c0.7-0.1,1.4,0.1,2,0c1.2-0.3,1.5-1.6,3.1-1.7c1.8-0.1,3.6,1.7,6.1,1c1.7-0.5,1.3-2.7,2.4-3.4s2.9-0.2,4.4-0.7
				c0.4-0.1,1-0.8,1.3-1c-0.1-0.5-0.1-0.9,0-1.4c0.2-0.4,0.8-0.2,1-0.7c1.6,0.5,3.6,1.6,5.4,0.7c0.4-0.2,0.7-1.4,1-1.7
				s1-0.1,1.4-0.3s1-1.2,1.4-1.4c0.8-0.3,1.6-0.5,2.4-0.7c0.2-0.7,0.3-1.3,0.3-2c-0.1-0.5-1.3-1-1.4-1.4c-0.3-1,0.4-0.9,0.3-1.7
				c0.4-0.4,0.8-0.9,1-1.4c1.3,0.2,2.8,0.6,4.1,0c0.7-0.4,0.5-1.1,1-1.7c0.9-0.8,2-1.5,3.1-2c-0.2-1-0.4-2-0.3-3.1
				c0.1-0.8,1.4-1.5,1.7-2c0.3-0.7,0.5-1.3,0.7-2c-0.4-0.2-0.7-0.4-1-0.7c-0.2-0.4,0.2-0.7,0-1c2.7-1.9,3.2-3,0-4.8
				c2-1,3.8-2.1,5.8-3.1c-0.1-0.6-0.1-1.1,0-1.7c-0.4-0.2-1-0.9-1.4-1c-1.4-0.4-2.2,0-3.1-0.7c-0.4-0.3-0.2-1.1-0.3-1.7
				c-0.8,0.3-0.5-0.9-0.7-1.4c0.1,0,1.9,0.1,1.4,0.3c2.2-0.2,6-0.5,4.1-3.4c-0.2-0.3-1.3-0.4-1.4-0.7c-0.2-0.7,0.6-1.6,0.3-2.7
				c-0.2-0.9-1.5-1-1.7-1.4c-0.7-1.1-1-1.4,0.3-2c-0.2-2.3-0.3-2.2,1-3.4c0.3,0,0.7,0,1,0c0-0.8,0.1-1.6,0.3-2.4l2-1
				c-0.5-1.4-1-2.8-0.7-3.7c0.1-0.3,1-1.1,1-1.4c0.1-0.8-0.5-0.5-0.3-1l-1.4,0.3c-0.8,2.9-0.5,3.9-2.4,1.4c-0.9,0.1-0.8,0.4-1.4,0.7
				c0,0,0-2.1,0-2.7c2.7-0.6,1.7-0.2,3.1-2c0.3,0.2,0.7-0.1,1,0s0.4,1.2,0.7,1.4c1.6,1.1,3.7,0.4,5.1,0c-0.2-0.7,0.2-1.4,0-2
				c-0.1-0.4-1.2-1.2-1.4-1.7s-0.2-1.9,0.3-1.7v-0.7c-0.1-0.2-1-0.9-1-1s0.1-0.8,0-1c2.5-1.1,2.8-1.3,4.1-3.7l0.7-0.7
				c0.1-0.7-0.6-1.3-0.3-2.4c0.1-0.6,1.2-1.3,1.4-2s-0.6-1.6-0.3-2.7c0.1-0.7,1.5-1.8,1.7-2.4c0.2-0.7-0.1-1.6,0-2.4
				c-2.2-1.3-2.1-0.8-2.4-4.1c0.6-0.4,0.2-0.3,0.3-1h0.7c0,0.7-0.1,1.7,0,2.7c0.1,0,1.9-0.1,1.4-0.3c0.2-0.7,0.6-1.4,1-2
				c0-0.3,0-0.7,0-1c-0.1-0.5-1-1.2-1.4-1.7c0.3-0.5,0.8-1,1-1.4s0.9-1.4,1-1.7c0.4-1.6-0.7-3-0.7-3.7c0-1.4,0.8-2.1,0.7-3.7l-0.7-1
				c-0.8-3.8-0.2-3.2-3.7-4.1c-0.2,0.7-0.5,1.9-0.7,2.7c-0.7,0.2-0.4-0.3-0.7,0.3c-1.2-0.1-2.7-0.3-3.4-0.3c0.2-2,0-3.9-0.7-5.8
				c-1-0.2-2.7-1.2-4.1-0.7c-0.3,0.1-0.7,0.8-1,1c0.1,0.8,0.1,1.6,0,2.4h-0.7c-0.3-0.7,0-1.1-0.3-1.7c-0.5-0.8-2.2-1.6-2.4-2.7
				c-0.3-1.9,0.9-2,0.7-3.7c-0.1-0.5-3-4.3-3.4-4.4c-1.9-0.4-2.2,0.9-3.1,1.4c-1.1,0.6-2.4,0.9-3.4,1.4c0.6,2.2,1.9,6.4-2.4,5.4
				c-1.5-0.3-1.1-1.4-1.7-2.7c-0.1-0.2-1-0.5-1-0.7c-0.3-1.6,0.8-2.9,0-4.4c-0.5-0.9-1.7-0.6-2.7-1c-0.1,0.2-1,0.5-1,0.7
				L1589.7,235.4z M1488.4,278.2c-0.5,0.5,0,1.7-0.3,2.4c-0.9,0.9-2.2,1.3-3.4,1c0,0-0.6-1.8-1.7-2c-0.9,0-1.8,0.1-2.7,0.3l-0.3,2.7
				l-1.7,2l1,0.3c0.5,0.9,1,1.8,1.4,2.7c-0.4-0.2-1,0.1-1.4,0c-1.2-0.4-2.4-3.9-3.7-4.4c-1.7-0.7-4.5-0.7-6.5-1
				c-0.4,0.4-0.9,0.7-1.4,1v1c0.4,0.1,0.5,0.9,0,0.7c-0.1,0-0.3-0.6-0.3-0.7c-0.9,0-2.1,0-3,0c-0.4,2.2-1.4,3.2-2.4,4.8
				c-0.4-0.3-1,0-1.4-0.3c-0.3-0.4-0.5-0.9-0.7-1.4c2.3-0.6-3.8,0.1-1.4,0.3c-0.6,0.2-0.9,0-1.4,0.3l-2,2.4c-0.5,1-0.2,2.8-1.4,3.4
				c-0.8,0.2-1.6,0.3-2.4,0.3c-1.7,4.4-1.4,1.5-4.1,2.7c-0.4,0.2-0.6,1.4-1,1.7s-1,0.1-1.4,0.3l-0.3,0.7c-1.5,1-2.9,0.6-4.4,0.7
				c-0.2,0.7-0.4,1.4-0.7,2c-0.6,0.9-1.8,0.8-2.7,1.4c-1.2,0.8-3.9,5.2-4.8,5.4c-0.7-0.2-1.3-0.3-2-0.3c-1.5,0.2-3,0.6-4.4,1
				c0,1.5,0.1,3,0.3,4.4c-0.8-0.2,0.1,0.4-0.7,0.3l-0.7-0.7c-1.1-0.1-2.2,0.4-2.7,1.4c-0.6,1.2-0.1,2.2,0,3.4c0.7-0.1,1.3-0.1,2,0
				c-0.3,3.9,0.1,4-3.4,3.7c-0.3,0.4-0.6,0.7-1,1c0.4,1.3,0.3,2,0.7,3.4c-0.2,0-1.5,0.3-2,0.3c0,0,0.2-1.8-3.4,0.7
				c0.5,3.8-1.2,5-0.7,9.2c-1,0.6-2.2,1.4-3.1,2c0.1,0.6-0.1,1.1,0,1.7c0.2,0.9,1.2,2,1.4,3.1c0.1,1,0,2.1-0.3,3.1l-0.7,0.3
				c-0.4,2.1,0.5,4.6,0.7,6.5c0.4,0.1,0.9,0,1,0.3s-0.2,1,0,1.4c-0.2,0.3-1.2,0.7-1.4,1c-1.1,1.8,0,3.4-0.3,5.4l-0.7,0.3v0.7
				c-0.3,0.9-0.3,1.8,0,2.7c0.1,0.2,0.8,0.5,1,0.7v0.7c3.5,0.2,3.6,0.3,5.4-2c0.3,0.1,1,0.4,1,0.3c-0.2,0.5-0.6,1.1-0.7,1.4
				c0,0.7,0.1,1.4,0.3,2c0.2,0.1,1,0.5,1,0.7c0.3,0.8-0.1,1.9,0,2.7c-3.1-1.5-5.1-1.1-3.7,2.7c0.2,0.5,0,0.8,0.3,1
				c0.6,0.4,1.6,0,2.4,0.3c0.2,0.1,0.8,1.3,1,1.4c2.2,0.4,3.1-1.8,3.7-3.1c0.4,0.2,0.9,0.7,1.4,0.7c-1.2,2.4-0.7,2,0,4.1
				c0,0.3,0,0.7,0,1c-0.2-0.5-0.4,0.9-0.3,1c0.4,2,3.2,1.8,5.1,1.7c-0.1,0.2,0.1,0.8,0,1c-0.4,0.9-2.6,1.9-3.4,2.4
				c0.2,0.6-0.2,1.1,0,1.7c0.7,0.8,1.5,1.5,2.4,2c1.4,0.3,3.9-0.5,4.8-1c0.3-0.2,0.9-1.3,1.4-1.4c1.1-0.2,1.5,0.4,2.4,0.7v1
				c-4.2,0.5-5.3,1.5-3.1,4.8c1.8-0.5,2.3-0.2,4.1-0.7c0.1,1.1,0.4,3.3,1.4,3.7c0.6,0.3,1.7-0.1,2.4,0c3.6,0.5,3.7,2,6.1-1.4
				c1.8,0.2,2.8,0.5,4.1,0l0.7-0.7c1.1-0.2,2.3,0.6,3.1,0.7c1,0.1,1.3-0.3,2-0.3c0.2-0.9,0.4-1.6,0.7-2.7c-0.5-0.4-1.1-0.7-1.7-1
				v-0.7c1.1-0.5,2.4-1.4,3.4-1.7c1.3-0.5,2.8-0.5,4.1,0l0.7,0.7c1.8,0.3,2.6-0.8,3.8-1c0.8-0.1,2,0.3,2.7,0c1-0.5,1-2.6,1.7-3.4
				s2.5-1.3,3.4-2c-0.3-0.8,1,0,1,0c0.5,3.1,0,2.6,3.1,3.1c0.5-1,1.3-3,2.7-3.1c0.6,0,0.2,0.5,1,0.3c0.2,0.5-0.2,1.2,0,1.7
				c0.1,0.2,0.8,0.7,1,1c0.4-0.1,1,0.1,1.4,0c1.1-0.3,1.6-2.8,2-3.7c3.8-0.2,3,0.2,4.4-2.4c1.2,0.1,2.5,0.1,3.7,0
				c0.1-0.4,0.6-0.5,0.7-0.7c0.2-0.7-0.3-1.6,0-2.4s1.6-1.2,2-1.7s0.5-1.6,1-2c1-0.9,2.6-1,3.1-2.4c0.2-0.8-0.2-1.6,0-2.4
				c0.1-0.4,1-1.6,1-2c0.2-2.6-1.2-2.8-2.7-3.7c-0.4,0.6-0.9,1.1-1.4,1.7c0.8,0.2-1,0.7-1,0.7c0.3-1.8-0.3-1.8,1.7-3.1
				c0.8-0.5,1.3-0.5,2-1c0.2-0.2,0.4-0.9,0.7-1c1.2-0.6,2.6,0,3.7-0.7c0.5-0.3,0.2-1.4,0.7-1.7c-0.5-1-0.1-1.1-1-1.7
				c-0.5-0.3-1.1-0.5-1.7-0.7c0.4-0.2,0.6-1.2,1-1.4c1-0.4,2,0.1,2.7-0.3s0.2-1.1,0.7-1.7c0.3-0.4,1.4-0.6,1.7-1s1.6-4.2,1.4-5.1
				c-0.1-0.5-1.2-1-1.4-1.4c-0.4-0.8-0.1-1.3-0.3-2.4c0.4,0,0.5-0.6,0.7-0.7c0.7-0.2,1,0.6,1.4,0.7c2.1,0.5,2.5-0.8,3.4-1.4
				c-0.2-1.5-0.3-2.9-0.3-4.4c-1.6-0.8-2.3-0.3-2.4-2.7s1.2-2.2,1.4-3.1c0-0.7-0.1-1.4-0.3-2c-0.3-3,0.8-3.3,0-6.1
				c0.6-0.1,1.1-0.1,1.7,0c1-2.2,0.9-1.3,0.3-3.7c-0.5-0.1-1.1-0.1-1.4-0.3c-0.7-0.9-1.4-1.8-2-2.7c1.5-1.2,2.5-2.3,4.1-3.4
				c-0.2-0.6,0.2-1.1,0-1.7c-0.1-0.2-1-1-1-1.4c-0.3-1.5-0.2-2.4-0.3-3.7c0.4,0,1.8,0.3,2.7,0.3c0.2-0.7,0.3-1.3,0.3-2
				c0-0.2-1.6-4.3-1.7-4.4c-0.3-0.3-1.3-0.5-1.7-0.7c0.5-1.6,1.7-4.4-0.3-5.1c-0.6-0.2-1.1,0.2-1.7,0c-0.2,0.6-0.4,1.1-0.7,1.7
				c-1.7,3-0.3,0.2-1.7,0.7c0.1-0.7,0.1-1.3,0-2c0.2-0.1,0.5-0.2,0.7-0.3c0.2-0.5,0.3-0.4,0.7-0.7c-0.3-0.6-0.5-1.3-0.7-2
				c-0.6,0.3-2.7,1.2-3.4,1c-0.1,0-0.8-1-1-1c-0.4-0.1-1,0.1-1.4,0c-0.3,0.3-1.1,1.6-1.4,1.7s-1-0.2-1.4,0c1.2,0-0.7-4.4-0.7-4.4
				c1.1-0.4,2.2-1,3.1-1.7c-0.1-0.7-0.1-1.3,0-2c-1.2-0.4-2.5-0.5-3.7-0.3c-0.4-0.9-0.3-0.8-1-1.4c-0.8,0.7-1.7,1.2-2.7,1.7
				c-0.4,3.5-0.2,3.4,2.7,3.4c-0.7,1.4-0.6,2-1,3.7c-0.9-1.3-2.1-2.3-3.4-3.1h-0.3c-0.6-1.2-0.2-2.8-0.3-4.1c0.7-0.1,0.6,0,1-0.3
				s1.7-0.8,2-1.4c0.2-0.2,0.3-1.4,0-1c-0.1,0-0.5-1.3-0.7-1.4c-1.6-0.8-4.1,0.3-5.4,0c-1-0.2-1.5-2.4-2.4-2.7h-0.7
				c-0.2,0.3-0.8,0.1-1,0.3L1488.4,278.2z M1699.2,282.6c-0.4,0.6-0.2,0.9-0.3,1.7c-1.6-0.4-2.2-0.3-3.7-0.7
				c-2.1,4.5-1.3,3.2-6.5,3.4l-1.7,0.7c-0.3,0-0.6-0.3-0.3-0.3c-0.5-0.2-1.2,0.2-1.7,0s-0.5-2.4-2.4-1.7c0,0-0.8,1.3,0,1
				c0,0,0.3,1.7,0.3,2c-1.6,1.1-1.3,0.7-2.4,2.4c-0.7-0.1-1.4-0.3-2-0.7c-1.3-0.9-0.6-1.6-0.3-1.4c0.1-0.8,1-0.7,0.7-2
				c-0.1-0.3-1.2-0.7-1.4-1s-0.2-0.8-0.3-1.4c-0.1,0-1.2-0.2-1.7-0.3c-0.2,1.8-0.2,3.6,0,5.4c-1.4,0-2.7,0.1-4.1,0.3
				c-0.5,0.1-1.6,1.6-2,2c-0.6-0.1-1.1-0.1-1.7,0c-0.2-0.7-0.3-1.3-0.3-2c-1-0.2-2.3-1.2-4.1-0.7c-0.2,0-0.9,1-1,1h-0.7
				c-2.5,2.4,1.3,2.9,2.7,3.7c0.4,0.2,0.9,1.1,1.4,1.4c-0.5,0.3-0.9,0.6-1.4,1c-1.5-1-3.1-2.3-5.8-1.4c-0.6,0.2-1.1,1.2-1.7,1.4
				s-1.4-0.1-2,0c-0.3-1.4-1.1-4-2.7-4.1c-0.5,0-1,0.5-1.7,0.7c-0.1,0.4-0.6,0.5-0.7,0.7c-0.2,1-0.3,2-0.3,3.1
				c-2.3,0.8-4.7,1.3-7.1,1.7c-0.5,1.3-0.8,2.2-1.4,3.4h-0.7v-0.7c-0.6-1.6-2.2-0.9-3.4-0.7c-0.4,2.6-1.1,3.1-2,5.1
				c-2.9-1-2.2-0.9-4.4,0c0.1,0.7,0.1,1.3,0,2l1,0.3v1c-1.4-0.2-2.7-0.2-4.1,0c-0.1,0.8-1,0.7-0.7,2c0,0.1,1.1,1.3,1,1.4
				c-1,0.4-1.4,2.7-1.7,3.7c-2.8,0.7-4.1,0.6-6.1,2c0.1,0.8-0.3,1.6,0,2.4s1.9,1.1,2.4,1.7s0.7,2.3,1.4,2.7s1.5-0.1,2,0
				c0.1,0,0.4,0.6,0.7,0.7c0,0-0.6,2-0.3,2c-1.7-0.3-3.5-0.2-5.1,0.3c0.2-1.6,0.5-3.9-1-4.4c-0.4-0.1-1,0.2-1.4,0
				c-0.1,0.4-0.6,0.5-0.7,0.7c-0.5,1.6,0.7,2.2,0.3,3.7c-0.2,0.8-4.9,4.6-5.8,5.8c0.4,0.4,0.2,0.6,0.3,1.4c0.8,0.2,2.2,0.9,3.1,1
				c-3.9,1-5.8,2.4-4.1,6.1c-1.2,0.8-4.1,4-3.7,6.1c0.1,0.5,1.2,1,1.4,1.4s-0.2,1,0,1.4c-0.8,0.4-4.6,3.3-4.8,3.7s0.1,1.4,0,2
				c0.5,0.1,0.9,0.2,1.4,0.3c0.2,0.1,0.1,0.9,0.3,1c-0.5,0.9-2.1,2.1-2.4,3.1c-0.4,1.4,0.6,4-0.7,4.4c-0.8,0.2,1,2,1,2v0.3
				c0.4,0.4,0.7,0.9,1,1.4c0.3,0.4,0.6,0.7,1,1c-0.7,1-2.5,2.8-1.7,5.1c0.1,0.2,0.8,0.6,1,1c0.8-0.2,1.6-0.3,2.4-0.3v3.4
				c0.1-0.7,0,3.6,0.3,4.1c0.2,0.4,1.6,0.4,2,0.7c0.2,0.2,0.4,1.2,0.7,1.4c1,0.4,2,0.8,3.1,1c0,0.9-0.3,2.6,0,3.4
				c0.4,1,2,0.9,3.1,1.4c0.3-0.5,1-0.9,1.4-1.4c0.2-0.3,0.5-0.7,0.7-1c0.3,0.8,1,3.2,1.7,3.7c1.2,0.9,2.4,0.5,4.1,0.3
				c-0.2,0.2,0,0.8,0,1s-1.4,1.4-1.7,1.7c0.3,0.5,0.5,1.1,0.7,1.7c1.1-0.1,2.3-0.1,3.4,0c0.5,0,1.4,1,2.7,0.7
				c0.3-0.1,1.1-1.3,1.4-1.4s1,0.1,1.4,0c1.9,2.8,0.7,2.9,4.8,3.7c1.1-1.6,2.2-5.1,5.4-4.4c0.2,0,1,1.3,1.4,1.4
				c1.3,0.3,2-0.7,3.4-0.3c0.3,0.1,0.7,1.2,1,1.4c0.5,0.3,1.1,0,1.7,0.3c0.3,0.2,0.4,1.2,0.7,1.4c0.6,0.4,4.8,2.1,6.1,1.7
				c0.6-0.2,1-1.5,1.7-1.7c1.8-0.5,2.7,0.8,4.4,0.3c1.2-0.3,2-2.7,2.4-3.7c4.7,0.6,3.1,0.1,5.8-1.7c0.6-0.4,1.2-0.3,1.7-0.7
				c0.3-0.2,0.7-1.2,1-1.4c1.4-0.5,3,0.4,4.4,0c0.6-0.2,1.2-1,1.7-1.4c-0.1-0.6-0.4-1.5-0.3-1.7c-0.8-0.4-1.7-1-2.4-1.4
				c1.1,0.2,2.3,0.3,3.4,0.3c1.2-0.2,4.2-2.5,4.4-3.7s-1.6-2.5,0-3.1c0.8-0.3,2.2,0.1,3.1,0c1-0.4,2.1-0.8,3.1-1.4
				c-0.1-0.6-0.1-1.1,0-1.7c-2.3-1.1-2.8-1.2-5.1,0.3l-0.3,0.7c-1.2,0.2-1-0.6-1.7-0.7c0.1-0.5,0.3-1.6,0.3-1.7
				c2.7,0.2,4,0.2,5.4-1.4c2.6-2.9,1.1-3.7-2-4.8c0.2-0.4-0.2-0.6,0-1s1.2-1,1.4-1.4s-0.2-1,0-1.4h0.7c0,0.5,0,0.9,0,1.4
				c0.4,0.2,0.8,0.2,1,0.7c1.8-0.6,4.9-1.8,5.1-3.7c0.3-2.9-3.2-2.8-5.1-2.7c0.8-1.7,1.1-3.6,0.7-5.4c0.7-0.2,1.3-0.3,2-0.3
				c0.1-0.4,0.6-0.5,0.7-0.7c0.6-1.8-0.1-1.7,1-3.1c0.5-0.5,1.1-1,1.7-1.4c-0.1,0.3-0.7,1.2-0.7,1.4c-0.2,1.1,0.6,1.4,0.3,2.4
				c-0.1,0.3-1.4,1.1-1.7,1.4c0.1,0.6,0.1,1.1,0,1.7c1.7,0.3,1.5,1.5,3.4-0.3c0.6-0.6,0.3-1.1,0.7-2c0.3,0.2,1-0.1,1.3,0
				s0.6,1.4,0.7,1.7c1.3-0.6,3.1-0.8,3.7-2c0.2-0.3,1-4.8,1-5.1c-0.1-0.6-0.9-1.1-0.7-2.4c0,0,1.5-2.7,1.7-3.1
				c-1.2-0.3-1.5-0.8-2.7-1c0.2-0.1-0.2-0.9,0-1c0.5-0.2,1.1-0.3,1.7-0.3c-0.1-0.9-0.1-1.8,0-2.7c0.1-0.3,1.1-0.8,1.4-1
				c-0.8-1.7-1-2.7-1.7-4.4c0.7-0.4,1.4-0.2,2-0.7c0.3-0.2,0.7-1.2,1-1.4c1.1-0.4,2.1,0,3.1-0.3c0.6-0.2,1-1,2-1
				c2.1,0,2.5,2.2,3.1,3.7c0.4-0.3,0.9-0.5,1.4-0.7c-0.1-1.4,0-2.8,0.3-4.1c0.1-0.4-0.3-0.9-0.3-0.7v-1c1.2-0.9,2.2-1.8,3.4-2.7
				c-0.1-0.6,0.2-1.4,0-2l-0.7-0.7c0,0-0.3-0.6-0.3-0.7c-1.1,0.2-2.3,0.7-3.4,0.3c-0.2,0-0.8-0.9-1-1c0.5-1,1.2-1.9,2-2.7
				c-0.5-1.8-1.7-6.8-1.4-8.5c0.2-1.3,2.3-2.3,2.7-3.4c1-2.7-0.8-8.9-2.4-9.5s-3.5,0.4-5.1-0.3c-0.5-0.2-0.3-1.2-0.7-1.7
				c-0.7-1-2.1-0.6-3.1-1.4c-1.1-0.8-2.2-5-3.4-5.4c-0.4-0.1-0.7,0.2-1,0c-0.6,3.4-0.5,3.2-3.7,4.1c-0.2-0.6-0.4-1.1-0.7-1.7
				c-0.3-0.4-1.6-0.7-1.7-1c-0.4-1.3,0.7-1.9,0.3-3.4c-0.1-0.5-1.3-1-1.7-1.4c0,0,0.3-0.6,0.3-0.7c0.9-0.1,1.8-0.1,2.7,0
				c0.7,0.2,1.2,1.8,2,2c4.3,1.1,3.4-2.1,1.7-3.4c-1.1-0.7-2.2-1.4-3.4-2l-0.7,0.3L1699.2,282.6z M1683.6,326.8c0,0-2.4,0.6-3.4,0.7
				c0.1,0.3-0.3,1.2,0.3,1c0.4,0.6,0.7,1.1,1,1.7c1.9-0.3,1.8,0.6,3-1.4l0.7-0.3c0.1-0.3-0.2-1.4-0.3-1
				C1684.3,327.3,1684.6,326.9,1683.6,326.8L1683.6,326.8z M1572,373.1c0,0.2,0,4.4,0,4.4c-0.2,0.2-0.9,0.4-1,0.7s-0.2,1.5-0.3,1.7
				c-0.5,0.4-0.8,0.2-1.7,0.3c0.4,0.2-0.8,0.4-1,0.3s-0.3-0.6-0.7-0.7c0.2-1.8,0.7-3.8-1-4.4c-0.7-0.3-0.8,0.5-1.7,0.3
				c-0.3,0-1.1-1-1.4-1c-2.7-0.6-3.8,1.2-5.1,2c-0.3-0.2-0.7,0.1-1,0c-0.5-0.2-0.9-1.5-1.4-1.7c-1.8-0.5-3.7-0.4-5.4,0.3
				c-1.6,0.9-0.8,4.5-1.7,6.1c-0.2,0.2-2.3,2-2.7,2.4c-0.6-0.7-1.3-1.4-2-2c-3.6-1-5.7,5.1-7.5-1.4c-0.6-0.3-1.3-0.4-2-0.3l-0.3,0.7
				c-1.1,0.7-2.1,2.2-0.3,3.1c0.3,0.1-0.5,0.4-0.3,0.7c-0.7,0.2-1.6,0.8-2.4,0.7s-0.8-1.7-2.7-1.4c-0.5,0.1-2.8,2.3-3.1,2.4
				c-1.1,0-2.3-0.1-3.4-0.3l-0.3,1c-2.7,0.7,0.2-1.4,0.7-1.7c-0.1-0.5-0.4-1.6-0.3-1.7c-1.4-0.2-1.8-0.1-3.1-0.3
				c-0.1,0.5-0.4,0.5-0.7,0.7c0.3,1.4,0.3,2,0.7,3.1c-0.9,0.4-2,0.2-2.4,1c-0.2,1-0.4,2-0.3,3.1c-0.7-0.2-0.7,0.5-1.4,0.3
				c-0.4-0.1-0.7-1.5-1.4-1.7c-1.8-0.5-3.4-0.1-5.1-0.3c-0.3,3.4-1.9,5.6-3.4,7.8c-0.2-0.1-0.9,0-1,0c-0.6-1.1-0.9-2.2-1-3.4
				c-0.6-0.2-0.5,0.3-0.7-0.3c-0.3,0.2-1-0.1-1.4,0c-0.2,0-0.3,0.5-0.7,0.7c0,0,0,1.6,0.3,1c-0.1,0.3-0.3,1.4-0.3,1.4
				c-0.8,0.1-1.7-0.2-2.4,0c-0.5,0.2-0.9,1.5-1.4,1.7c-2.5,1.1-4.7-0.4-6.5-1c-0.7,1-1.2,1.2-1.7,2.7c0.1-0.9,0.1-1.8,0-2.7
				c-0.1-0.2-0.6-0.2-0.7-0.7c-0.5,0.2-1.2-0.2-1.7,0c-0.3,0.1-0.9,0.8-1.4,1c-0.3-0.2-0.7-1.2-1-1.4c-1.5-0.5-3.1-0.7-4.8-0.7
				c-0.1,0-0.3,0.6-0.3,0.7c-2,1.7-1,1.3-0.7,3.4l0.3,1.4c0,0,1.6,0,1-0.3c0.4,0,0.9,0,1.4,0c0,0.5,0,0.9,0,1.4
				c-0.8-0.2-0.6,0.5-1.4,0.3c-0.3,0-1.1-1.3-1.4-1.4c-1.1-0.2-4.7,0.9-5.4,1.4c-0.3,0.2-0.1,0.8-0.3,1c-0.4,0.4-1.2,0.3-1.7,0.7
				c-0.2,0.1-0.5,0.9-0.7,1s-0.8-0.1-1,0c-0.2-0.6-0.5,0-0.7-0.3c-0.1-0.5-0.1-0.9,0-1.4c-0.6-0.1-0.2-0.1-0.3-0.7
				c-0.7,0.1-1.3,0.1-2,0c-0.8,1-1.6,2.5-2.7,3.1c-1.6,0.8-5.5,1-6.5,2.4c-0.4,0.5,0,0.9-0.3,1.4c-0.6-0.2-0.3,0.4-0.3,0.7
				c-0.9-0.3,0,1,0,1c0.9,0.3,1.1-0.4,2-0.3v1c-0.8,0.2-0.8,0.1-1.7,0.3c0.5,0.4-1,0.3-1,0.3l-0.3-1.7c-0.2-0.1-1.6,0.2-1.7,0
				c-0.3-0.6,0-2.1,0-2.7c-3.6-0.8-2.5-0.6-4.1,2.4c-0.1,0.1-1,1-1,1c-0.3,1.2,0.5,2.3,0.3,3.1c-0.1,0.4-0.9,0.7-1,1
				c-0.6-0.1-1.1-0.1-1.7,0c0.1-0.8,0.2-1.6,0.3-2.4c-0.3-0.2-0.6-0.2-0.7-0.7c-0.7,0-2.4,0.3-2.4,0.3s-1,0.3-1,0.3
				c-0.5,0.5-0.2,1.9-0.7,2.4c-0.7,0.7-2,0.4-2.7,1c-0.2,0.2,0,0.9-0.3,1s-1.2-0.2-1.7,0c0.3-0.2-0.7-0.7-0.7-0.7l0.7-1
				c1.2-0.4,2.4-0.2,3.1-1c0.1-0.1,0.7-1,0.7-1c0-0.7-0.1-1.4-0.3-2c-3.2,0-5.1,0.4-6.8,2.7c-0.3,0.4-0.3,1.2-0.7,1.4
				c-1,0.5-2.2-0.1-3.1,0.3c-0.4,0.2-1.7,4.3-1.4,5.4c0.1,0.2,0.8,0.7,1,1c0.7-0.1,1.3-0.1,2,0c0,0.1-0.4,0.7-0.3,0.7
				c-2.6,0.5-2.7,1-3.7,3.1c-3.4,0-3.9,0.3-4.8,2.7v0.7c-0.7,0.6-2,0.2-2.7,0.7c-1.7,1.2-0.3,5.9-0.3,8.8c1.5,0.4,3.6,1.1,4.1,2.4
				c0.1,0.4-0.2,0.7,0,1c-0.8,0.6-5.3,4.5-5.4,5.1c-0.3,1.1,0.2,1.8,0.3,2.7c0.4,0,1.1,0.5,2,0.3c0.7-0.1,0.9-1.1,1.4-1.4
				c0,0,1.5,0.5,1,0.7c0.2,0.2,0.9,0.4,1,0.7c0.4,0.8,0.1,1.3,0.3,2.4c-0.5,0.1-0.5,0.6-0.7,1c-0.4-0.2-0.8-1-1-1
				c-0.7-0.2-1.6,0.1-2.4,0c-0.4,1.1-1.5,3.1-1.4,4.4c0,0.2,1,0.9,1,1c0.5,1.1-0.1,1.2,0,2.4c-0.4-0.2-0.3,0.5-1,0.3
				c-0.1,0-0.4-0.6-0.7-0.7c1.3-0.5-1.9-0.5-1-0.3l-0.3,1.4c1.4,0.8,3.8,1.4,4.8,2.7c0.5,0.7,0.3,1.8,1,2.4c1.1,0.9,2.4,0.4,2.7,2
				c0.4,1.9-1,2.5-0.7,4.1c0.2,0.9,1.7,1.4,2,2c0.3,0.9,0.5,1.8,0.7,2.7c0.1,1.5-0.4,5.3,0.3,7.1h0.3c1,0.5,1.8,2.4,2.7,2.7h0.7
				c0.2,0.1,0.1,0.9,0.3,1c0.8,0.4,1.6-0.1,2.4,0.3s3.4,4.2,2,5.4c1.7,1.3,5.1,2.2,4.8,5.4c0,0-0.9,1.4-1,1.7c0.4-0.2,0.3,0.5,1,0.3
				c0.4-0.1,0.5-1,0.7-1.4c0.5,0.1,0.9,0.1,1.4,0c0.7,0.7,3.5,2.8,1,3.4c-0.2-0.3-0.7-1.2-1-1.4s-1,0.2-1.4,0c-0.3,0.4-0.6,0.7-1,1
				c0,0,0,1.2,0.3,0.7c0.1,0.4,0.3,0.9,0.3,1.4c0.7-0.3,0.3,2.4,0.3,2.4c1.6-0.7,3.4-0.9,5.1-0.7c0.1-0.2,0.2-0.5,0.3-0.7
				c0.3-0.1,1.7,0.3,1.4,0.3c0.5,0.8,1.1,1.6,1.7,2.4c-1.6,0.5-3.4,0.5-3.7,2c0,0.2,0.1,0.9,0,1c-0.2,0.3-1.2,0.6-1.4,1
				s0.2,1.2,0,1.7c0.6-0.3,1.1,0,1.7-0.3s1.1-1.6,1.7-2c1.2-0.9,2.3-1.4,3.4-2.4c0.8,1.3,1.7,2.6,2.7,3.7c0.4,0.4,1.8,0.8,2,1.4
				c0.4,1-0.4,1.3-0.3,2l0.7,1c0.5,2.5,0.1,1.9,1,3.7c0.4-0.2,1,0.1,1.4,0c0.9-0.2,2-1.8,2.7-2.4c2.6,2.3,4.7,4.2,8.8,2
				c-0.2,2-0.4,4,1.4,4.8c0.5,0.2,1-0.1,1.4,0.3s0.9,2.7,1,3.1c3.8-0.6,4.9-0.1,7.5,1.4c0.5-0.3,1.9-1.8,2.7-1.7c0,0-0.3,1.7-0.3,2
				c0.7,0.4,1.4,0.9,2,1.4c0.3,0.5-0.1,1.5,0,2s1.6,1.7,1.7,2c0.1,0.8-0.5,1.3-0.7,2c0.9-0.2,2.4-0.9,3.4-0.7s1.7,1.6,2.4,2
				c0.5,0.3,1.1,0,1.7,0.3c0.9,0.5,2.6,4.1,3.1,5.4c1.7-0.6,3.4-0.9,5.1-1c0.4,0,1.2,0.7,2,0.3v-0.3c0.6-0.3,0.6-1.1,1-1.4
				s1,0,1.7-0.3c1,3.4-0.3,2.2,3.1,3.1c0.2-0.4,0.4-0.7,0.7-1c0.4-0.2,0.7,0.2,1,0c0.3,0.2,0.7,1.2,1,1.4c0.9,0.5,3.7,0.6,4.8,0.7
				c0.1,0.8-0.3,1.7,0,2.4c0.5,1.4,6.8,2.6,8.8,3c0.2,0.6-0.2,1.1,0,1.7c0,0,3,3,3.1,3.1c3,1.3,3.1-1,4.4-1.4
				c2.7-0.8,3.7,0.8,4.8,1.4c0.6,0.3,1.1,0,1.7,0.3c0.2-0.5,0.6-0.5,1-0.7c-0.3-1.9-0.2-3-0.3-4.1c0.5,0.1,0.8-0.2,1.4-0.3
				c0.3,0.5,1.1,2.5,1.7,2.7c1.9,0.7,4.4-0.6,5.8-0.7c2.3-0.1,2.6,0.8,3.7,1.7c3.2-1.4,3.5-0.1,7.1-0.7c0.3-0.1,1.8-1,2-1
				c1.2-0.2,2.3,0.5,3.1,0.3c0.3-0.1,1-0.8,1.4-1c-0.2-0.6,0.2-1.1,0-1.7c0-0.1-3.4-5,1-3.8c0.2,0,0.8,1,1,1
				c0.7,0.1,1.1-0.4,1.4-0.3c-0.4-0.3,0.3-1.5,0.3-1.7c-0.4-0.2-0.1-0.6-0.3-0.7c-0.6-0.2-1.1-0.3-1.7-0.3c0-0.7-0.4-1-0.3-1.4
				c0.1-1.2,2.2-1.8,2.7-2.7c0.4-0.7,0.2-1.7,0.7-2.4s4.5-2.6,6.1-2.4c0.2,0,0.9,1,1,1c0.4,0.1,1-0.2,1.4,0s0.9,1.5,1.4,1.7
				c0.3,0.1,0.8-0.2,1,0c0.3-3.8,0.1-3,3-3.1c0.1,1,0.1,2,0,3.1c0,0-1,0.6-1,0.7c0.6,2.3-0.1,1.6,1.4,3.1c-0.4,0.1-0.5,0.6-0.7,0.7
				c-0.5,0.2-1.2-0.2-1.7,0c0.5,0.2-1.3,0.3-1.4,0.3c-0.1-0.3-0.2-0.7-0.3-1c-1.7-2.5-1.3-2.4-5.4-2.4c-0.1,0.8-0.3,1.6-0.7,2.4
				c-0.4,0.5-1.6,0.6-2,1s-0.3,0.3-0.7,1v1c0.2,0,1.2-0.2,1.4,0c0,0.1,0.2,1.2,0.3,1.7c-1.7,0,0.1,2.7,0.3,3.1
				c-1.1,0.9-2,1.8-3.1,2.7c0.2,0.6,0.4,0.7,0.3,1.4c3.5,2.1,4.2,1.7,6.1-1.7c0.2,0.3,1.1,0.4,1.4,0.7s0.1,0.9,0.3,1.4
				c1.4,2.2,3,1.1,4.8,0.3c-0.3-1.6-0.2-3.2,0.3-4.8c0.3,0.2,1-0.2,1.4,0s1,1.8,1.7,2c2.6,0.6,2.9-1.3,4.1-2c0.6-0.4,1.1,0,1.7-0.3
				s1.2-1.3,1.7-1.7c0.3,0.1,0.7-0.1,1,0c0.5,0.1,1,1.2,1.4,1.4c1.1,0.5,1.8,0.1,3.1,0c0.2-0.4,0.4-0.7,0.7-1c0.5-1.8-1-2.8,0.3-3.8
				c0.3,0.2,1-0.1,1.4,0s0.6,1.4,1,1.7c1.8,1.3,3.3,0,4.8-0.7c0-1,0-2.1,0-3.1c-0.8-0.3-2.8-0.9-3.1-1.7c-0.1-0.4,0.2-1,0-1.4
				c0.9,0.2,0.8-0.6,1.7,0c1.1,0.7,0.4,2.2,2.7,2c1.3-0.1,2.6-1.6,3.1-2.7c0,0,0.8-0.5,0.3-0.7c-0.8-0.5-1.2-1.5-1-2.4
				c0-0.2,0.9-0.6,1-0.7c0.8-1.1,0.6-1.9,1-3.4c-0.3-0.2-0.6-0.2-0.7-0.7c-0.3,0-0.7,0-1,0v-1c4.7,2.2,5.2,0.3,9.5-1
				c0-0.9,0.1-1.8,0.3-2.7c0.1-0.4,1.2-0.9,1.4-1.4c0.2-0.7-0.1-1.3,0-2c-0.3-0.2-0.6-0.2-0.7-0.7c-0.6,0.1-1.1,0.1-1.7,0
				c-0.2-0.1-0.5-1.3-0.7-1.4c0.3,0,0.8-0.5,1-0.7c1.9,1.3,1.2,1.1,3.7,1c-0.1-0.8,0.4-0.5,0.3-1.4c0-0.3-1-1.2-1-1.4
				c-0.2-1.2,0.5-1.5,0.7-2s-0.2-1.4,0-2s1.3-1.4,1.7-2c-0.2-0.2,0-0.8,0-1c-0.2-0.8-1.7-1.3-2.4-1.7c0.8-2.8,1.9-3.8,2.4-7.1
				c-0.3-0.1-0.9-0.7-1-0.7c-2-0.5-3,1.6-4.1,2.4c-0.3,0.3-0.5,0.6-0.7,1c-0.2-0.7-0.4-2.3-0.7-3.4c-0.1-0.3-1-1.1-1-1.4
				c-0.3-2,1.7-2.3,2-3.7v-0.3c-0.1,0.2-0.4-1-0.3-1.4c0.1-0.5,2.8-5.2,1.4-6.1c-2-1.3-3.2,0.7-4.4,1c-0.2,0-0.8-0.1-1,0
				c-0.1-0.4-0.6-0.5-0.7-0.7c-0.4-1.1,0-2.9,0-4.1c0.2,0.6,0.3-0.3,0.3-0.3c-1.2-2.6-0.9-1.9-3.7-1.7c-0.3,1.2-1,5.5-2,6.1
				c-0.8,0.5-1.9,0-2.7,0.3c-0.2,0.1-1,1-1,1c-0.8,0.2-1-0.4-1.4-0.3c0.4,0-0.3-1-0.3-1c-0.1-1.2,1.2-3.4,1.4-4.1
				c0.2-1.4-0.5-2.5-0.7-3.4l0.3-1c0.6,0.1,1.4-0.2,2,0c1.6,0.5,1,3.6,3.7,2.4s1.1-4.1,0.3-5.8c-1.8,0.1-2.6,0.1-4.1,0.3
				c0.7-2.3,0.4-2.1,0-4.1c-0.6-0.2-1.2-0.4-1.7-0.7c0,0-2.3,2.2-1.7,2.4c1.5,0.5,0.7,4.3,0,5.4c-0.5,0.8-2.2,1.3-3.1,1.7
				c0.2-4.4-0.1-3.4,2.7-6.1c-0.4-1.3-0.3-1.6-0.7-2.7c0.2-0.1,0.9-0.5,1-0.7c0.3-0.7-0.3-1,0.3-1.4c0,0-0.6-1.8-0.7-2
				c0.3,0.2,1,0.1,1.4,0.3s0.5,0.9,0.7,1c0.4,0.1,1.6-0.3,1.4-0.3c0.1-0.2,0.9-0.5,1-0.7c0.3-1-0.4-2.7,0-3.7
				c0.2-0.8,2.1-0.4,1.7-2.7c-0.1-0.8-1.5-1.5-2-2c1-2.2,1-1.3,0.3-3.4c-0.5-1.5-1-3.2-2.4-3.7c-3.7-1.5-4.2,0.6-3.7,3.7
				c-0.2,0.2-1.6,0.8-1.7,1v0.7h-0.7c-0.3-0.9-0.1-1.6-0.7-2l-0.3-0.3c0.2-0.2-0.1-0.8,0-1h0.3c1.3-0.7,1.8-2,2.7-3.1
				c-3.3-0.6-3.3-2.1-4.4-5.8c0.8-0.4,2.5-1.7,3.4-1.7c1.8-0.1,1.4,1,2,1.4s1-0.1,1.7,0.3c0.4-0.4,0.9-0.7,1.4-1
				c-0.3-1,0.1-1.7-0.3-2.4c-0.1-0.1-1.4-0.7-1.4-0.7c-0.3-1.3,0.9-1.2,0.7-2.7c-0.1-0.8-1.3-1.2-1.7-1.7s-0.1-0.9-0.3-1.4
				c-0.6-1-2.1-1.5-3.1-2c0.1-0.7-0.2-1.4,0-2c0.1-0.4,1.3-1.2,1.4-1.7c0.2-1.9-1.8-2.9-3.1-3.4c-0.7-0.3,0.9-0.8,1.4-0.7l0.7,0.7
				c3,0.8,2.5-2.1,2.4-3.7c-0.4-0.1-0.5-0.6-0.7-0.7c-1.7-0.6-3.8,1.3-4.8,1.7l-0.7-1c0.1-0.2,0.9-0.5,1-0.7c0.1-0.7,0.1-1.3,0-2
				c0.5,0.2,0.2-0.5,1-0.3c0.1,0,0.5,0.9,0.7,1c1.7,1.1,2.4,0.2,3.7-0.7c-1.4-3.5-1.4-4.8-5.4-2.7c0-0.3,0-0.7,0-1
				c1.3-0.6,2-0.5,2.7-1.7c0.1-0.2,0.5-0.2,0.7-0.3c-0.2-0.4,0.1-1,0-1.4c-0.2-0.7-1.5-1.3-1.7-2c-0.4-2,0.3-3.4,0-5.4
				c0.3,0.2,0.7-0.6,1.4,0s0.1,3.4,0,4.8c0.6-0.1,1.2,0.4,2.4,0c0.1,0,0.2-0.7,0.3-0.7c0-0.3,1-0.9,0.7-2c0-0.1-0.7-0.8-0.7-1
				c0.1-0.5,1.5-0.8,1.4-2.7c-0.1-1.1-1.2-0.8-0.7-2.4c0-0.1,0.9-0.9,1-1c0,0-0.1-0.9-0.3-0.3c-0.2-0.1-0.4-1.2-0.7-1.4
				c-0.9-0.1-1.8-0.1-2.7,0v-0.7h0.3c0-0.6,0.2-1.1,0.3-1.7c1.4-1.3,3,0.1,4.8-0.3c0.2-0.1,0.7-0.9,1-1c-0.1-0.5-0.1-0.9,0-1.4
				c-1-1.3-2.3-2.3-3.7-3.1c0.1-0.7,0.1-1.3,0-2c-0.4-0.7-1.1-0.2-1.7-0.7c-0.8-0.6-1.1-2.4-1.4-3.4c-0.4-0.1-0.6-0.6-0.7-0.7
				c-4.2-1.5-2.7,3.5-2,5.1c-0.6,0.2-0.6,0-1,0.3c-1.3,1-1.2,0.9-3.1,0.3c0.2-0.4-0.7-0.5-0.3-0.7c1.9-1.2,1.1-3.3,1-6.1l1-0.3
				c1.7-3,0.3-2.8-2.7-2.7c0.2,3.4,0.7,2.4-2,3.1c-1.8-2.6-2.5-3.1-5.8-3.1c-0.2,0.6-0.4,1.2-0.7,1.7c0.1,0.2,1,0.9,1,1
				c-0.2,0.1,0,1.5,0,1.7c-0.7,0-1.4,0.1-2,0.3c-0.5-1.9-0.9-4.9-1.7-6.5c0.9-0.7,1.7-1.5,2.4-2.4c-0.2-0.5-0.3-1.1-0.3-1.7
				c-0.2,0-1.8-0.2-1.4,0c-1,0.5-1.1,0.1-1.7,1c-0.3,0.6-0.5,1.3-0.7,2c-0.4-0.1-1.3-0.4-1.4-0.3c-0.2-0.3-0.4-0.8-0.7-1
				c-0.4,0.2-0.6-0.6-0.7-0.7c2.5-1.4,2.6-1,2-3.7c-0.4-0.1-0.5-0.6-0.7-0.7c-0.4-0.1-1.6,0.3-1.4,0.3h-0.7c-0.5,0.2-0.4,1.5-1,1.7
				c-0.4,0.1-1-0.2-1.4,0c-0.4-1.6-1-3.9-2.4-4.4c-0.4-0.1-0.7,0.2-1,0c-0.2,0.3-1.1,0.5-1.4,0.7L1572,373.1z M1714.9,390.1
				c0,0,0.2,1,0.3,1.4c-0.4,0.1-0.6,0.6-0.7,0.7c-0.9,0.2-1.8,0.3-2.7,0.3c-0.3,3.2-1.2,4.6-1,7.1c-1.4-2.5-2.3-2.3-4.4-0.7
				c-0.3-0.4-0.6-1.5-1-1.7c-1.1-0.6-5.9-0.3-7.8-0.7c-0.1,0.4-0.6,0.5-0.7,0.7c-0.4,1.2,0,3.4,0,4.8l-0.7,0.3c-0.2-0.5-0.6-0.7-1-1
				c0.9-2.9,0.1-6.8-3.4-4.4c-0.4,0.3-0.3,1.4-0.7,1.7c-0.5,0.3-1.1,0.5-1.7,0.7c0.2,1-0.1,1.6,0.3,2.4c0.7,1.2,3.6,1,4.1,2.4
				c0.2,0.6-0.2,1.1,0,1.7c-0.3,0-0.7,0-1,0c-0.9-0.8-1.6-1.9-2-3.1c-1.1-0.2-3,0.1-4.4-0.3c-0.1,0-0.8-1-1-1
				c-1.3-0.2-1.7,0.8-3.1,0.3c-0.1,0-0.3-0.6-0.7-0.7c1.8-1,1.6-0.9,1.3-3.4l-1-0.3c-0.3,0.4-0.8,0.3-1,0.7s-0.1,1.5-0.3,1.7
				c-0.8,0.6-2-0.1-2.7,1c-0.4,1.2-0.7,2.5-1,3.7c-6.6-1.9-4.1,3-8.2,3.1c0,0-0.8-0.3-1-0.3v-0.7c0.6-0.1,1.1-0.1,1.7,0
				c-0.2-0.1,0.3-0.6,0.3-0.7c-0.3-0.3-0.5-0.2-0.7-0.7c-1.4-0.2-3.4-0.9-4.4-0.7c-0.6,0.1-1.5,1.4-2,1.7c-1.3,0.7-2.6,0.7-4.1,1.4
				c-0.2,0.1-0.7,1-1,1c-1.2,0.2-1.4-0.7-2.4-0.3c-0.3,0.3-0.5,0.6-0.7,1c-1.2,1.5-0.9,2.3,0,4.1c-0.8,0.2-1.5,0.4-2.7,0.7
				c0.2-0.4-0.1-1,0-1.4c0.3-0.3,0.6-0.5,1-0.7c-0.2-0.6,0.2-1.1,0-1.7c-0.1-0.2-0.9-0.7-1-1c-0.7,0.2-1.3,0.3-2,0.3
				c-0.2,1.4-0.5,3.7-0.7,5.1c-0.7-0.1-1.3-0.1-2,0c0.2,0.5-0.2,1.2,0,1.7s1.8,1.1,2.4,1.4c0,0.1-0.1,1.9-0.3,1.4
				c-0.2,0.4,0.1,0.6,0,1c-0.1,0.2-0.8,0.7-1,1h-0.7c-0.4-1-0.8-1.9-1.4-2.7c-1.5-2-1.3-0.8-3.7-1.7c-0.1,0-0.6-1-0.7-1
				c-0.6-0.2-1.1,0.2-1.7,0c-0.2,0.4-1,0.8-1,1c-0.3,1,0.1,2-0.3,2.7c-0.7,1.2-2.3,0.7-3.4,1.4c-1.3,0.8-2,3.8-2.4,5.4
				c-2.7-1.3-1-1.3-3.7,0c0.1,0.6-0.2,0.8-0.3,1.4c0.8,0.8,1.9,1.3,3.1,1.4c-0.1,0-0.1,1.2-0.3,1.4c-0.6,0.1-1.1,0.1-1.7,0
				c-0.2,0.4-1,1-1,1.4c-0.3,1.4,0.6,2.8,0.7,3.7c0,0.7-0.4,1-0.3,1.4h-0.7c-0.7-0.2-1.3-2.2-2-2.4c-1.1-0.3-1.2,0.4-2,0.3
				c-0.9,2.9-1.1,2.7,1,4.4c-0.7,0.6,0.2,4.4,0.3,5.8c-0.5-0.5-1.2-0.9-1.7-1.4c0.7,0-1.9-0.3-1,0c-0.4,0.3-1,0-1.4,0.3v0.7
				c-1.1,3.1,1,3.4,2,6.1c-0.1,0.1,0,0.9,0,1c-0.2,0.4-1.8,0.9-2,1.4c-0.2,0.3,0.1,1,0,1.4s-1,1.6-1,1.7c-0.2,0.6,0.2,1.4,0,2
				c0.9,0.6,1.7,1.3,2.4,2c0.4,0.5,0.2,1.2,0.7,1.7s1.3,0.5,1.7,1c1,1.4,1.9,4.9,2.4,6.8c0.6,0,1.2,0.1,1.7,0.3
				c-0.2,0.1-0.2,0.9-0.3,1c-0.3,0.4-1.5,0.6-1.7,1c-0.6,1,0.1,3.7,0,5.4c0.6,0.2,0.2,0,0.3,0.7c1.2,0.1,2.5,0.1,3.7,0
				c-0.2,0.4,0.1,1,0,1.4c-0.3,1.1-2.3,1.9-1,3.7c0.2,0.3,1.3,0.4,1.4,0.7c0.5,1.6-1.2,2.5,0.3,3.4c0.8,0.3,1.6,0.5,2.4,0.7
				c-0.1,1.2-0.7,2.8,0,4.1c0.1,0.2,1,0.5,1,0.7c0.2,0.8-0.3,2,0,2.7c0.1,0.2,0.5,0.2,0.7,0.3c0.9,0.8,1.8,0.7,2.7,1.4
				c0.3,0.2,0.1,0.6,0.3,1c1.3,2.2,3.1,0.9,4.8,0c-0.1,1.8-0.3,3.6-0.7,5.4c0.2,0.1,2,0.5,1.7,0.3c0.9-0.6,2-0.4,2.4-1.7
				c0.1-0.4-0.2-1,0-1.4s1.2-0.1,1.4-0.3c0.1,0.3-0.1,0.7,0,1s1,0.9,1,1c0.1,0.5-0.5,2-0.3,2c-0.3,0.2-0.5,0.4-0.7,0.7
				c0,0.3,0,0.7,0,1c1.5,0.8,3.1,1,4.8,0.7c-0.1,0.6-0.1,1.1,0,1.7c-0.3,0.4-1,0.7-1.4,1c0.1,0.5,0.1,0.9,0,1.4
				c0.5,0.2,0.4,0.6,0.7,1c1.9-0.4,2-0.3,3.1-1c0.6-0.3,1.2-0.6,1.7-1c0.6-0.9,0.1-1.9,1-2.4c0.4-0.2,1.2,0.1,1.7,0l0.7-0.7
				c1.8-0.4,1.1,0.1,2.4,0.3c-0.1,0.7-0.1,1.3,0,2c-0.9,0.3-1.9,0.7-2.7,1c0.1,0.6,0.3,2.4,0.3,2.4c0.6,0.3,1.3,0.4,2,0.3
				c0.5-0.1,1.2-1.1,1.7-1.4c2.1-1.3,3.3-0.5,5.8-1.4c0.1,0,0.3-0.6,0.7-0.7c-0.2-0.8,0.3-1.7,0-2.4h-0.3c-0.6,0-1.2-0.8-1.7-1
				c0.1-0.7,0.1-1.3,0-2c0.3-0.3,0.5-1,1-1h0.3c0.6,0.6,1.4,2.1,2.4,2.4c0.4,0.1,1-0.1,1.4,0c-0.4,1.2-0.3,1.7-0.7,3.1
				c1.2,0.5,3.3,1.7,5.1,0.7c1.7-0.9,0.5-2.2,0.3-3.1s0.4-1.3,0.3-1.7c2.2-0.1,4.4-0.6,6.5-1.4c0.1,0,0.2-0.7,0.3-0.7h0.7
				c0.5-0.8,0-2,0.3-3.1c0.2-0.7,1.4-1.1,1.7-1.7s0-1,0.3-1.7c1.5,0,4.6,0.2,6.1-0.7c0.7-0.4,1-1.6,1.7-2c0.3-0.2,0.7,0.1,1,0
				c2.2-0.9,0.7-3.1,0-4.1c1.2-0.3,3.4-0.6,3.8-1.7c0.2-0.5-0.3-1.6,0-2h0.3c1.4-0.7,2.3-2,3.4-3.1c0.3,0.2,1-0.1,1.3,0
				c0.8,0.3,1,2,3.1,1.4c0.2-0.1,0.6-0.9,1-1c-0.3-0.5,0-1.2-0.3-1.7c-0.2-0.2-1.9-1-2-1.4s0.2-0.7,0-1c3.2-0.8,3.8-0.7,3.4-4.4
				c1.1-0.7,2.3-0.9,3.4-1.7c0.3-0.3,0.3-0.8,0.7-1c-0.2-1.6-0.7-3.7,0.7-4.4c2.5-1.3,3.3,0.8,4.4,1c1.4,0.3,1.6-0.5,2.4-0.7
				c-0.1-0.8,0.4-0.6,0.3-1.4c0-0.3-0.8-1.1-0.7-1.7c0-0.2,1-1,1-1c0.2-0.4-0.2-0.6,0-1c-0.5-0.3-1.5-0.7-2-1c1-2.1,0.9-2.9,0-5.1
				c1.1,0.6,2.2,1.2,3.4,1.7c-0.1,0,1.7,0,2,0c0.2-0.6,1.3-3.8,1.7-4.1c0.9-0.6,2.1-0.1,3.1-0.7c0.7-0.5,0.3-1.9,0-1.7
				c0.2-0.6-0.2-1.2,0-1.7c0-0.1,0.6-0.3,0.7-0.7c1.6,0.3,3.3,0,4.8-0.7c0.3-2.4,0.3-3.5-1.4-4.8c-0.2-0.1-1-0.5-1-0.7
				c-0.3-0.8,0.1-1.6,0-2.4c0.5-0.2,0.6,0.3,0.7-0.3c0.6,0.2,1.1-0.3,1.7,0s0.3,1.4,0.7,1.7c1.5,1.1,3.6,0.8,4.7-0.6
				c0.2-0.2,0.3-0.5,0.4-0.7c0.4-1.3-0.2-1.3-0.3-2.4h-0.7l0.3-2.7c-0.7,0.1-1.3,0.1-2,0c-0.2-0.6,0.2-1.1,0-1.7
				c-0.1-0.2-0.9-0.5-1-0.7c-0.4-0.6,0-1-0.3-1.7c0.4-0.2,0.6-0.9,1-1c0.2-0.1,0.8,0.1,1,0c0.6-0.5,1-2.1,1.7-2.4s2.2,0,3.1,0
				c0.5-1.8,1.2-3.3,1.7-4.8c-0.3-0.2-0.4-1.2-0.7-1.4c-0.7-0.4-1.5-0.4-2-0.7c-2-1.3,2.2-2.3,3.1-3.1c0.3-0.3,0-1,0.3-1.4
				c-0.4-0.1-4.6-0.9-4.8-1s-1.2-2.7-1.4-3.1c1.1-0.4,2.2-0.9,3.1-1.7c-0.5-0.4-0.5-1.3-1-1.7s-0.8-0.2-1.4-0.3
				c0-0.1-0.3-1.2-0.3-1.7c1.1-0.5,1.8-0.9,2.7-1.4c-0.2-0.5,0.2-1.2,0-1.7c-0.1-0.2-0.9-0.5-1-0.7c-0.4-0.9-0.7-1.8-1-2.7
				c-0.2,0.6-0.3-1-0.3-1c1.4-0.9,0.4-2.9-1.4-2.7l-0.7,0.7c-0.7,0.3-1.1,0.4-1.7,0.7c0,0,0,2.2,0,2c0.2,0.4,0.9,0.7,1,1
				c0.3,0.7,0.1,1.4,0.3,2c-0.8-0.7-1.3-1-2-1.7c-0.6,0.2-1.1-0.2-1.7,0s-1,1.5-1.4,1.7c-0.6,0.2-1.1-0.2-1.7,0
				c0-0.1-0.3-0.7-0.3-0.7c-0.2,0.5-0.3-1.3-0.3-1.4s1-0.6,1-0.7c0.2-0.9-0.4-1.3-0.3-1.7h-0.7c-0.5,0.1-0.9,1.7-1.4,2
				c-0.2,0.1-0.8-0.1-1,0s-1.1,0.9-1.4,1c-2.1,0.6-4.3,0.8-6.5,0.7c-0.5,1-0.8,2-1,3.1c-0.1,0-1,0-1,0c-0.1-0.8-0.3-2.4-0.3-3.7
				c0.7-0.2,1.3-0.3,2-0.3c0-1.7-0.3-3.4-0.7-5.1c1.6,0.3,1.8,0.5,3.4,0l0.3-0.7c0.8-0.1,1.6-0.1,2.4,0c-0.1-0.3,0.5-0.7,0.3-1.4
				c-0.3-1.4-2.2-2.7-3.1-3.7c-0.4,0.5,0,0.9-0.3,1.4s-0.7,0-1,0.3s-0.7,1.3-1,1.7c-0.1-0.1-0.9-0.2-1-0.3c-0.3-0.3-0.2-0.9-0.3-1.4
				c-0.4-0.1-0.5-0.6-0.7-0.7c-1.3-0.4-2,0.5-2.7,0.7l-0.3-0.3c0.1-1.3,0-2.5-0.3-3.7c-0.5,0.1-0.9,0.1-1.4,0
				c-0.3,0.4-1.2,0.8-1.4,1.4L1714.9,390.1z M1602.7,396.2c-0.2,0.5-0.6,0.5-1,0.7c0.2,0.7,0.3,1.3,0.3,2c0.6,0.1,0.3,0.4,0.7,0.7
				c0.2-0.1,1.1,0,1.4,0c-0.2-1.4-0.2-2.1-0.3-3.4L1602.7,396.2z M1598.9,400.6c-0.3,0.4-0.6,0.7-1,1c0.8,1.6,1.1,3.5,3.4,2.7
				c0.7-0.2,0.6-1,1-1.4c-0.3-0.2-0.7,0.1-1,0c-0.8-0.3-0.9-2.1-1.7-2.4L1598.9,400.6z M1713.8,404.3c-0.2,0.4-0.9,0.8-1,1
				c-0.2,0.9-0.3,1.8-0.3,2.7c-1.2,0.4-2.3,0.9-3.4,1.4c0.9,1.4,1.3,2.6,2.7,3.4c6.2,3.3,3.1-5.2,2.7-8.5L1713.8,404.3z M1586,411.8
				v0.7c-0.2,0.5-0.4,1.1-0.3,1.7c0.4,0.8,0.8,1.6,1.4,2.4h0.7c0.2,0.2,0.4,0.9,0.7,1s1-0.2,1.4,0c0.1-0.2,1-1.4,1-1.4
				c0.1-0.8-0.6-0.7-0.7-1c-0.2-0.8,0.4-1.3,0.3-1.7C1590.3,412.9,1587.6,411.1,1586,411.8L1586,411.8z M1652,417.6
				c1,1.9,2,3.1,2.4,5.8c0.3,0.1,0.8,0.6,1,0.7c1.9,0.4,3.1-1,4.1,1.4c0.6,1.4-0.1,4,1.7,3.1c0.5-0.3,0.6-3.1,0.7-3.7
				c-2.1-0.5-3.9-1.5-5.4-3.1c0.1-0.2,0.3-1,0.3-1C1655.2,419.6,1653.6,418.6,1652,417.6L1652,417.6z M1604.7,433.6
				c0.6,1.2,0.6,3.2,3.1,2.4c0.2-0.1,0.7-0.9,1-1c-0.1-0.6-0.1-1.1,0-1.7c-0.3-0.2-1.1-1.3-1.4-1.4s-0.7,0.2-1,0
				C1606,432.5,1605.2,433,1604.7,433.6L1604.7,433.6z M1612.2,461.8c0,0.3,0,0.7,0,1c0.4,0.2,1,0.9,1.4,1c3.6,0.8,2.2-2.6,1.7-3.7
				c-0.5,0.1-0.9,0.1-1.4,0C1613.5,460.6,1612.6,461.2,1612.2,461.8L1612.2,461.8z M1608.8,488.4c0.1,0.7,0.1,1.3,0,2
				c3.3,0.9,2.1,1.7,3.1-1.7c-0.3-0.2-0.6-0.2-0.7-0.7c-0.6-0.2-0.9-0.1-1.4-0.3C1609.8,487.8,1609,488.1,1608.8,488.4L1608.8,488.4
				z M1614.6,496.2c-1.2,1.3-2.4,2.6-3.4,4.1l0.7-0.7c1.3-0.5,2.7-0.7,4.1-0.7c-0.2-1.1-0.2-1.5-0.3-2.7
				C1615.6,496.2,1614.6,496.2,1614.6,496.2L1614.6,496.2z M1605.8,498.2c0,0.1-0.3,1.2-0.3,1.7c2.3,1.8,6,4.1,3.7-1.4
				C1607.7,498.3,1607.1,498.4,1605.8,498.2L1605.8,498.2z M1433.7,500.2c0.5,0.1,1.9,1.9,0,1.4
				C1433.2,501.4,1432.8,499.9,1433.7,500.2z M1436.8,500.2c0.1,0.2,1,0.5,1,0.7c0.2,0.6,0,0.9-0.3,1c0,0,0.6,1.6,0.7,2
				c-0.5-0.4-0.8-0.2-1.4-0.3c-0.1-0.5-0.6-0.8-0.7-1C1435.9,501.5,1436.6,500.7,1436.8,500.2L1436.8,500.2z"/>
		</g>
	</g>
	<path class="st3" d="M1626,545h1.3c1.4,0,1.8-0.4,1.8-1.2s-0.3-1.1-1.6-1.1h-1.5V545z M1626,549.1h-1.1v-7.3h2.8
		c1.7,0,2.6,0.6,2.6,2.1c0.1,1-0.7,1.9-1.8,2c0,0-0.1,0-0.1,0l2.1,3.2h-1.2l-1.9-3.2h-1.3V549.1L1626,549.1z M1627.3,540.2
		c-2.9-0.1-5.4,2.2-5.4,5.1c-0.1,2.9,2.2,5.4,5.1,5.4s5.4-2.2,5.4-5.1c0-0.1,0-0.1,0-0.2c0.1-2.8-2.2-5.2-5-5.3
		C1627.5,540.2,1627.4,540.2,1627.3,540.2z M1627.3,539.2c3.5,0,6.3,2.9,6.2,6.4c0,3.5-2.9,6.3-6.4,6.2c-3.5,0-6.2-2.9-6.2-6.3
		c0-3.5,2.8-6.3,6.3-6.3C1627.3,539.2,1627.3,539.2,1627.3,539.2z"/>
</g>
</svg>
