<svg xmlns="http://www.w3.org/2000/svg" viewBox="0 0 1843.64 429.65"><defs><style>.cls-1{fill:#ccc;stroke:#ccc;stroke-miterlimit:10;stroke-width:8px;}.cls-2{fill:#f56600;}.cls-3{fill:#662d91;}</style></defs><g id="Layer_2" data-name="Layer 2"><g id="Layer_1-2" data-name="Layer 1"><path class="cls-1" d="M84.7,250.49c-22.5,0-35.4-9-45-28.5l-27.6-55.8C7,156,4,146.39,4,134.69c0-13.2,2.4-21.3,8.4-33.3L40,45.89c10.2-20.7,23.1-28.8,46.2-28.8h51c6.6,0,15,3.6,15,15,0,10.8-8.1,15-15,15H87.1c-12.9,0-15,1.2-20.7,12.6l-26.1,52.2c-3.9,8.1-6.3,13.5-6.3,22.8,0,8.4,2.7,13.5,6.3,20.7l25.5,51.9c6,12.3,9,13.2,22.5,13.2h48.9c6.6,0,15,3.6,15,15,0,10.8-8.1,15-15,15Z"/><path class="cls-1" d="M268.6,250.49c-15,0-26.7-3.6-37.2-15.3-9.9-11.1-11.4-21.9-11.4-35.7V32.09c0-9.6,4.2-15,15-15s15,5.4,15,15v167.4c0,16.8,5.1,21,18.6,21h51c13.5,0,18.6-4.2,18.6-21V32.09c0-9.6,4.2-15,15-15s15,5.4,15,15v167.4c0,13.8-1.5,24.6-11.4,35.7-10.5,11.7-22.2,15.3-37.2,15.3Z"/><path class="cls-1" d="M516.69,250.49c-22.5,0-35.4-9-45-28.5l-27.6-55.8c-5.1-10.2-8.1-19.8-8.1-31.5,0-13.2,2.4-21.3,8.4-33.3L472,45.89c10.2-20.7,23.1-28.8,46.2-28.8h51c6.6,0,15,3.6,15,15,0,10.8-8.1,15-15,15h-50.1c-12.9,0-15,1.2-20.7,12.6l-26.1,52.2c-3.9,8.1-6.3,13.5-6.3,22.8,0,8.4,2.7,13.5,6.3,20.7l25.5,51.9c6,12.3,9,13.2,22.5,13.2h48.9c6.6,0,15,3.6,15,15,0,10.8-8.1,15-15,15Z"/><path class="cls-1" d="M682,47.09v10.8c0,9.6-4.2,15-15,15s-15-5.4-15-15V17.09h148.2v40.8c0,9.6-4.2,15-15,15s-15-5.4-15-15V47.09h-29.1v188.4c0,9.6-4.2,15-15,15s-15-5.4-15-15V47.09Z"/><path class="cls-1" d="M868,17.09h133.2c7.8,0,15,4.2,15,15s-7.2,15-15,15H898v46.2h73.8c7.8,0,15,4.2,15,15s-7.2,15-15,15H898v112.2c0,9.6-4.2,15-15,15s-15-5.4-15-15Z"/><path class="cls-2" d="M1363.39,213h33.78c.16-2,.06-3.85.08-5.71s0-3.64,0-5.62H1431V190.48h78.71V201.6l5.59,0h5.6c0,.64.07,1.19.07,1.75v72.86c0,1.1,0,2.19,0,3.29s.09,1.11,1.14,1.11c2.81,0,5.61,0,8.42,0h1.61c0,.68.12,1.26.12,1.85q0,25.14,0,50.28c0,.86,0,1.71,0,2.57,0,.4,0,.8-.07,1.32-3.71.17-7.35,0-11.08.11a18.43,18.43,0,0,0-.14,3.69c0,1.22,0,2.44,0,3.66v3.61c-1,.3-99.82.35-101.25.05v-11h-11.22V325.57c-2.61-.18-5.08-.06-7.54-.08s-4.89,0-7.33,0h-7.56c0-.54-.13-1-.13-1.48,0-2.72,0-5.45,0-8.17,0-.48,0-1-.09-1.55h-22.41c0-.57-.08-1-.08-1.5V291.67c-2-.09-3.79,0-5.61-.05h-5.43c-.27-1-.32-65.85,0-67.35h10.91a15.81,15.81,0,0,0,.17-3.78c0-1.22,0-2.44,0-3.66Z"/><path class="cls-2" d="M1543.93,224.26H1555c0-.62.12-1.1.12-1.57,0-2.56,0-5.13,0-7.69,0-.32,0-.65,0-1,0-.9.14-1,1-1,.36,0,.73,0,1.1,0q15,0,29.9,0c.56,0,1.12-.06,1.83-.1V201.69h44.82v11.22c2,.15,3.81.05,5.62.07s3.64,0,5.41,0c.32,1.19.33,43.65,0,44.85h-10.94c0,.53-.1,1-.1,1.38q0,4.2,0,8.42v1.45h-11.23c-.06,3.77,0,7.41,0,11.22-3.71.09-7.35,0-11.13.06,0,.5-.1.92-.1,1.35,0,2.81,0,5.61,0,8.42v1.47h-11.2c0,.66-.11,1.17-.12,1.69,0,2.64,0,5.29,0,7.93,0,.32,0,.65,0,1a.65.65,0,0,1-.71.67c-.32,0-.65,0-1,0h-41.87c-1.15,0-1.23-.1-1.24-1.28,0-2.72,0-5.45,0-8.17,0-.52-.05-1.05-.08-1.7-.53,0-1-.11-1.46-.11-2.77,0-5.53,0-8.3,0-.44,0-.87,0-1.39-.07Z"/><path class="cls-2" d="M1442.26,167.58h-11c-.31-1-.35-54.74,0-56.06h11c0-.7.13-1.26.13-1.81q0-9.52,0-19V89c.6,0,1.07-.1,1.54-.1h21v-11c1-.28,43.41-.33,44.86-.06v11c.56,0,1,.09,1.42.09h8.43c.43,0,.86.05,1.34.08v44.81l-3.64,0c-1.22,0-2.44,0-3.66,0h-3.81c0,.6-.07,1.1-.07,1.61q0,15.19,0,30.39v1.68c-.53,0-1,.08-1.39.08h-8.3c-.48,0-1,.06-1.55.1v10.76a2.75,2.75,0,0,1-.21.25.27.27,0,0,1-.1.06,2.67,2.67,0,0,1-.48.08h-54.32a4.07,4.07,0,0,1-.6-.06c-.08,0-.14-.07-.33-.17,0-.4-.09-.87-.09-1.34,0-2.69,0-5.37,0-8.06C1442.38,168.73,1442.31,168.25,1442.26,167.58Z"/><path class="cls-2" d="M1611.23,156.33h-11.12c0,.67-.11,1.26-.11,1.85q0,9.45,0,18.91c0,.52-.06,1-.1,1.72h-11c-.06.7-.14,1.25-.14,1.8,0,6.39,0,12.77,0,19.16,0,.52,0,1-.08,1.62h-56c-.13-1.17,0-2.38-.06-3.58s0-2.52,0-3.78v-3.74c-.56,0-1-.08-1.42-.08h-8.43c-.43,0-.86-.05-1.35-.08V134h11.13c.13-1.57,0-3,.07-4.47s0-3,0-4.52V111.58c.52,0,1-.07,1.45-.07h21c0-.62.13-1.12.14-1.63,0-2.65,0-5.29,0-7.93,0-.33,0-.65,0-1a.68.68,0,0,1,.77-.74l1,0h41.38c1.66,0,1.67,0,1.67,1.7v7.81c0,.52.06,1,.1,1.73l3.68,0c1.26,0,2.52,0,3.78,0h3.69Z"/><path class="cls-2" d="M1352.13,201.31v-11c-.56,0-1-.09-1.42-.09h-8.43c-.43,0-.86-.06-1.34-.09V122.76h11.14c.08-2,0-3.79,0-5.6s0-3.65,0-5.63c3.75-.07,7.39,0,11.14,0a24.63,24.63,0,0,0,.12-3.71c0-1.22,0-2.44,0-3.66v-3.79c.64,0,1.19-.11,1.74-.11h41.5c.48,0,.95.05,1.52.09,0,.54.07,1,.07,1.41,0,2.68,0,5.37,0,8.05,0,.29,0,.57,0,.86,0,.6.26.91.88.88.29,0,.57,0,.86,0h9.42c0,.68.11,1.27.11,1.85q0,23.93,0,47.84v17.55c-.57,0-1,.09-1.44.09h-8.42c-1.34,0-1.39.06-1.41,1.35,0,.29,0,.57,0,.86q0,3.84,0,7.68c0,.44,0,.88-.06,1.47H1397c0,3.79,0,7.44,0,11.05C1396,201.52,1353.64,201.57,1352.13,201.31Z"/><path class="cls-3" d="M1134.34,241.65V188q16.31-.88,24.59-4.92t14.3-13.52q6-9.5,8.27-23.81,1.8-10.73,1.79-37.33,0-43.36,4-60.47t14.53-27.5q10.5-10.39,30.62-16.43,13.63-4,42.92-4h11.85V53.43q-24.81,0-31.86,2.79a20.27,20.27,0,0,0-10.39,8.5q-3.36,5.7-3.35,19.56,0,14.07-2,53.42-1.11,22.14-5.81,35.88t-12,22.69q-7.26,8.94-22.24,18.55a78.16,78.16,0,0,1,21.57,17.78A71.41,71.41,0,0,1,1234,257.3q4.47,14.54,5.81,38.89,1.56,37.11,1.56,47.4,0,14.75,3.58,20.56a22.28,22.28,0,0,0,10.84,8.83q7.26,3,31.41,3v53.65h-11.85q-30.18,0-46.27-4.81a62.66,62.66,0,0,1-27.16-16,56.33,56.33,0,0,1-14.87-27.61q-3.79-16.42-3.8-51.75,0-41.13-3.57-53.42-4.92-17.9-14.87-25.6T1134.34,241.65Z"/><path class="cls-3" d="M1843.64,241.65q-16.32.9-24.59,4.92t-14.2,13.52q-5.92,9.51-8.38,23.81-1.79,10.73-1.79,37.11,0,43.37-3.91,60.58t-14.42,27.6q-10.5,10.4-30.85,16.44-13.63,4-42.92,4h-11.84V376q23.91,0,31.29-3a21.81,21.81,0,0,0,10.84-8.72q3.47-5.7,3.58-19.33t1.9-52.09q1.11-23.25,6-37.22a75.19,75.19,0,0,1,13.07-23.69,77.66,77.66,0,0,1,20.91-17.11q-16.56-10.73-24.15-21-10.5-14.75-14.3-37.55-2.48-15.64-3.58-68.86-.22-16.75-3-22.35t-10.06-8.61q-7.26-3-32.52-3V0h11.84q30.18,0,46.28,4.69a60.56,60.56,0,0,1,27.05,16,58.32,58.32,0,0,1,14.86,27.72q3.92,16.43,3.91,51.75,0,40.91,3.36,53.42,4.9,17.9,15,25.6t30.63,8.83Z"/><path class="cls-1" d="M705.23,404.28h41.28c3.11,0,6,1.68,6,6s-2.88,6-6,6H693.23V377.16c0-9,4.56-13.56,13.56-13.56h33.72V334.93H699.23c-3.12,0-6-1.68-6-6s2.88-6,6-6h39.84c4,0,6.72.6,9.72,3.36,3.36,3.12,3.71,6.36,3.71,10.68v24.59c0,4.32-.35,7.56-3.71,10.68-3,2.76-5.76,3.36-9.72,3.36H705.23Z"/><path class="cls-1" d="M826.9,322.93a12,12,0,0,1,12,12v69.35a11.81,11.81,0,0,1-12,12H791.63a11.81,11.81,0,0,1-12-12V334.93a12,12,0,0,1,12-12Zm0,81.35V334.93H791.63v69.35Z"/><path class="cls-1" d="M878,404.28H919.3c3.12,0,6,1.68,6,6s-2.88,6-6,6H866V377.16c0-9,4.56-13.56,13.56-13.56H913.3V334.93H872c-3.12,0-6-1.68-6-6s2.88-6,6-6h39.84c4,0,6.72.6,9.72,3.36,3.36,3.12,3.72,6.36,3.72,10.68v24.59c0,4.32-.36,7.56-3.72,10.68-3,2.76-5.76,3.36-9.72,3.36H878Z"/><path class="cls-1" d="M999.7,322.93a12,12,0,0,1,12,12v69.35a11.81,11.81,0,0,1-12,12H964.42a11.81,11.81,0,0,1-12-12V334.93a12,12,0,0,1,12-12Zm0,81.35V334.93H964.42v69.35Z"/></g></g></svg>