<svg xmlns="http://www.w3.org/2000/svg" viewBox="0 0 1893.06 565.12"><defs><style>.cls-1{font-size:300px;}.cls-1,.cls-4{fill:#ccc;stroke:#ccc;stroke-miterlimit:10;stroke-width:8px;font-family:OCRAStd, OCR A Std;}.cls-2{fill:#f56600;}.cls-3{font-size:457.82px;fill:#662d91;font-family:Arial-BoldMT, Arial;font-weight:700;}.cls-4{font-size:120px;}</style></defs><g id="Layer_2" data-name="Layer 2"><g id="Layer_1-2" data-name="Layer 1"><text class="cls-1" transform="translate(4 309.96)">CUCTF</text><path class="cls-2" d="M1397.29,272.42h33.78c.16-2,.06-3.85.08-5.7s0-3.65,0-5.62h33.79V249.94h78.71v11.13l5.59,0h5.6c0,.64.07,1.2.07,1.75V335.7c0,1.1,0,2.2,0,3.29s.09,1.11,1.14,1.11c2.81,0,5.61,0,8.42,0h1.61c.05.68.12,1.27.12,1.85q0,25.14,0,50.29c0,.85,0,1.7,0,2.56,0,.4,0,.8-.07,1.32-3.71.17-7.35,0-11.08.11a18.46,18.46,0,0,0-.14,3.69c0,1.22,0,2.44,0,3.66v3.61c-1,.3-99.82.35-101.25.05v-11h-11.22V385c-2.61-.19-5.08-.06-7.54-.09s-4.89,0-7.33,0H1420c0-.54-.13-1-.13-1.47,0-2.73,0-5.45,0-8.18,0-.48,0-1-.09-1.55h-22.41c0-.56-.08-1-.08-1.5V351.13c-2-.09-3.79,0-5.61-.05h-5.43c-.27-1-.32-65.85,0-67.35h10.91a15.81,15.81,0,0,0,.17-3.78c0-1.21,0-2.44,0-3.66Z"/><path class="cls-2" d="M1577.83,283.72h11.11c0-.62.12-1.09.12-1.57,0-2.56,0-5.12,0-7.69,0-.32,0-.65,0-1,0-.89.14-1,1-1,.36,0,.73,0,1.1,0h29.9c.56,0,1.12-.06,1.83-.1V261.16h44.82v11.21c2,.15,3.81.06,5.62.07s3.64,0,5.41,0c.32,1.19.33,43.64,0,44.84h-10.94c0,.53-.1.95-.1,1.38,0,2.81,0,5.61,0,8.42v1.45h-11.23c-.06,3.77,0,7.42,0,11.22-3.71.09-7.35,0-11.13.06,0,.5-.1.93-.1,1.35,0,2.81,0,5.61,0,8.42v1.47H1634c0,.66-.11,1.18-.11,1.69,0,2.64,0,5.29,0,7.93,0,.33,0,.65,0,1a.65.65,0,0,1-.71.67l-1,0h-41.87c-1.15,0-1.23-.1-1.24-1.28,0-2.73,0-5.45,0-8.18,0-.52,0-1-.08-1.69-.53,0-1-.12-1.46-.12h-8.3c-.44,0-.87,0-1.39-.06Z"/><path class="cls-2" d="M1476.16,227.05h-11c-.31-1-.35-54.75,0-56.07h11c0-.7.13-1.25.13-1.81q0-9.51,0-19v-1.7c.6,0,1.07-.1,1.54-.1h21v-11c1-.28,43.41-.33,44.86-.06v11c.56,0,1,.08,1.42.08h8.43c.43,0,.86,0,1.35.08v44.81l-3.64.05h-7.48c0,.6-.07,1.11-.07,1.61q0,15.2,0,30.39V227c-.53,0-1,.08-1.39.08H1534c-.48,0-1,0-1.55.09V237.9a2.75,2.75,0,0,1-.21.25.27.27,0,0,1-.1.06,2.67,2.67,0,0,1-.48.08q-27.17,0-54.32,0a4,4,0,0,1-.6,0,2.06,2.06,0,0,1-.33-.17c0-.4-.09-.88-.09-1.35,0-2.69,0-5.37,0-8.05C1476.28,228.19,1476.21,227.71,1476.16,227.05Z"/><path class="cls-2" d="M1645.13,215.79H1634c0,.67-.11,1.26-.11,1.85q0,9.47,0,18.92c0,.51-.06,1-.1,1.71h-11c-.06.7-.14,1.25-.14,1.8,0,6.39,0,12.78,0,19.16,0,.52,0,1-.08,1.62h-56c-.13-1.17,0-2.37-.06-3.57s0-2.53,0-3.79v-3.74c-.56,0-1-.07-1.42-.07h-8.43c-.43,0-.86,0-1.35-.08v-56.1h11.13c.13-1.57,0-3,.07-4.47s0-3,0-4.51V171.05c.52,0,1-.08,1.45-.08h21c0-.62.13-1.13.14-1.64,0-2.64,0-5.29,0-7.93,0-.33,0-.65,0-1a.69.69,0,0,1,.77-.74l1,0,41.38,0c1.66,0,1.67,0,1.67,1.7v7.81c0,.52.06,1,.1,1.73,1.28,0,2.48,0,3.68,0h7.47Z"/><path class="cls-2" d="M1386,260.77v-11c-.56,0-1-.08-1.42-.08h-8.43c-.43,0-.86,0-1.34-.08V182.22H1386c.08-2,0-3.79,0-5.6s0-3.64,0-5.63c3.75-.07,7.39,0,11.14,0a24.8,24.8,0,0,0,.12-3.72c0-1.22,0-2.44,0-3.66v-3.78c.64,0,1.19-.12,1.74-.12h41.5c.48,0,1,.06,1.52.09,0,.54.07,1,.07,1.41,0,2.68,0,5.37,0,8.05,0,.29,0,.57,0,.86,0,.6.26.91.89.88.28,0,.56,0,.85,0h9.42c0,.67.11,1.26.11,1.85q0,23.91,0,47.83V238.2c-.58,0-1,.09-1.45.1h-8.42c-1.34,0-1.39.06-1.41,1.35,0,.29,0,.57,0,.86q0,3.84,0,7.69c0,.43,0,.87-.06,1.46h-11.19c0,3.79,0,7.44,0,11C1429.88,261,1387.54,261,1386,260.77Z"/><text class="cls-3" transform="translate(1154.82 392.76)"><tspan xml:space="preserve">{   }</tspan></text><text class="cls-4" transform="translate(713.57 475.74)">2020</text></g></g></svg>