<?xml version="1.0" encoding="utf-8"?>
<!-- Generator: Adobe Illustrator 22.0.0, SVG Export Plug-In . SVG Version: 6.00 Build 0)  -->
<svg version="1.1" id="logo_-_v3_kopia" xmlns="http://www.w3.org/2000/svg" xmlns:xlink="http://www.w3.org/1999/xlink" x="0px"
	 y="0px" viewBox="0 0 209 49.1" style="enable-background:new 0 0 209 49.1;" xml:space="preserve">
<style type="text/css">
	.st0{display:none;}
	.st1{fill:#FDFEFF;}
	.st2{fill:#09B36B;}
	.st3{fill:#FFFFFF;}
</style>
<rect x="-2.1" y="-5.7" class="st0" width="221.8" height="60.3"/>
<g id="Black_On_White_1_">
	<g id="Logo_Type_1_">
		<path class="st1" d="M65.5,27c0-0.6-0.1-1.1-0.3-1.5h0c-0.7-1.7-2.7-2.2-4.7-2.4c-0.7-0.1-1.3-0.2-1.8-0.4h0.2
			c-0.7-0.2-1.1-0.6-1.1-1.2c0-0.9,0.8-1.6,2.6-1.6c1.3,0,2.5,0.7,2.9,1.4l1.9-0.9c0,0,0,0,0-0.1h0c-0.9-1.9-2.9-2.5-4.9-2.5
			c-2.3,0-4.8,1.1-4.8,3.6v0v0c0,0.1,0,0.1,0,0.2c0,0.1,0,0.1,0,0.2c0.2,2.5,2.4,3.1,4.9,3.4c1.6,0.2,2.9,0.7,2.9,1.8
			c0,1.3-1.4,1.8-2.9,1.8c-1.5,0-2.9-0.6-3.5-2l-1.9,1c0,0,0,0,0,0.1h0c0.9,2.3,2.9,3.1,5.4,3.1c2.8,0,5.2-1.2,5.2-3.9
			C65.5,27,65.5,27,65.5,27L65.5,27z"/>
		<path class="st1" d="M75.9,18.2c-1.2,0-2.3,0-3.5,0v2.2h3.5c3,0,3,4.4,0,4.4h-3.5l0,0V27v3.7c0.8,0,1.7,0,2.5,0V29v-1.6V27h1
			C82,27,82,18.2,75.9,18.2z"/>
		<path class="st1" d="M109.9,28.7c-3.1,0-4.3-2.2-4.3-4.2c0-2.1,1.3-4.3,4.3-4.3c1.1,0,2.2,0.4,3,1.2l1.6-1.5
			c-1.3-1.3-2.9-1.9-4.6-1.9c-4.5,0-6.6,3.3-6.6,6.6c0,3.2,2,6.4,6.6,6.4c1.8,0,3.4-0.6,4.7-1.8l-1.6-1.6
			C112.3,28.2,111,28.7,109.9,28.7z"/>
		<path class="st1" d="M120.2,20.3h3.9v10.3h2.3V20.3h3.9v-2.1c-3.6,0-6.6,0-10.2,0L120.2,20.3L120.2,20.3z"/>
		<path class="st1" d="M87,28.3v2.3h10v-2.3H87z"/>
		<path class="st1" d="M97,25.5v-2.2l-10,0v2.2H97z"/>
		<path class="st1" d="M87,20.5h10v-2.3H87V20.5z"/>
		<path class="st1" d="M137,28.3v2.3h10v-2.3H137z"/>
		<path class="st1" d="M147,25.5v-2.2l-10,0v2.2H147z"/>
		<path class="st1" d="M137,20.5h10v-2.3h-10V20.5z"/>
		<path class="st2" d="M174.9,17.9c-4.3,0-6.4,3.3-6.4,6.6s2,6.4,6.4,6.4c4.4,0,6.3-3.2,6.4-6.4C181.3,21.2,179.2,17.9,174.9,17.9z
			 M174.9,28.7c-2.9,0-4-2.2-4.1-4.2c-0.1-2.1,1.2-4.4,4.1-4.4s4.1,2.3,4.1,4.4C178.9,26.6,177.8,28.7,174.9,28.7z"/>
		<path class="st2" d="M189.9,18.2c-1.2,0-2.3,0-3.5,0v2.2h3.5c3,0,3,4.4,0,4.4h-1.2l0,0h-2.3l0,0V27v3.7c0.8,0,1.5,0,2.3,0v-1.4
			v-1.4V27h1.2C196,27,196,18.2,189.9,18.2z"/>
		<path class="st2" d="M208.2,27c0-0.6-0.1-1.1-0.3-1.5l0,0h0c-0.7-1.7-2.7-2.2-4.7-2.4c-0.7-0.1-1.3-0.2-1.8-0.4h0.2l0,0
			c-0.2-0.1-0.3-0.1-0.4-0.2c-0.4-0.2-0.7-0.6-0.7-1.1c0-0.9,0.8-1.6,2.6-1.6c1.3,0,2.5,0.7,2.9,1.4l1.9-0.9c0,0,0,0,0-0.1h0
			c-0.9-1.9-2.9-2.5-4.9-2.5l0,0l0,0c-2.3,0-4.8,1.1-4.8,3.6v0v0c0,0.1,0,0.1,0,0.2c0,0.1,0,0.1,0,0.2c0.2,2.5,2.4,3.1,4.9,3.4
			c1.6,0.2,2.8,0.7,2.9,1.8c0,1.3-1.4,1.8-2.9,1.8c-1.5,0-2.9-0.6-3.5-2l0,0l0,0l-1.9,1c0,0,0,0,0,0.1h0c0.9,2.3,2.9,3.1,5.4,3.1
			C205.7,31,208.2,29.8,208.2,27C208.2,27,208.2,27,208.2,27L208.2,27z"/>
		<path class="st1" d="M161.5,22.3c0-2.2-1.6-4.1-4.5-4.1c-1.2,0-2.4,0-3.6,0v2.2h3.6c1.5,0,2.1,1,2.1,2c0,1-0.6,2-2.1,2h-3.6v0.4
			v1.7v4.1c0.8,0,1.5,0,2.3,0v-1.4v-1.4v-1.3l1.4-0.1l3.8,4.3h2.8v-0.2l-4.1-4.6C161,25.1,161.5,23.7,161.5,22.3z"/>
	</g>
	<g id="Icon_1_">
		<polygon class="st2" points="15.7,20.4 15.7,22.2 16.9,23.7 20.9,23.8 20.9,20.4 18.3,18.9 		"/>
		<polygon class="st2" points="24.6,20.4 24.6,23.9 28.5,23.7 29.9,22.2 29.9,20.4 27.2,18.9 		"/>
		<path class="st3" d="M40.7,34.9L40.7,34.9L37.5,33l0,0V16.1L33,13.6l-3.4-1.9l-6.7-3.8l-6.6,3.8l-3.4,1.9l-0.8,0.5l-3.2-1.9
			l1.1-0.6l5-2.9l8-4.5l8.1,4.6l5,2.8l4.8,2.7l0,0l3.6-2.1v0l-6.7-3.7l-5-2.8l-9.9-5.5L13,5.6L8,8.5l-6.4,3.7v0.1l6.8,3.9v16.8
			L23,41.3l11-6.2l3.2,1.9l-14.1,8L5.3,34.7l-3.6,2.1L23,49.1l17.7-10l0,0l0,0l3.7-2.1v0L40.7,34.9L40.7,34.9z M12,30.8V18.2
			l2.6-1.5l3.4-1.9l4.8-2.8l5,2.8l3.4,1.9l2.7,1.5V31l-11,6.2L12,30.8z"/>
		<polygon class="st3" points="41.5,18.1 41.5,31.1 45.3,33.1 45.3,15.9 		"/>
		<polygon class="st3" points="4.1,18.1 0.3,15.9 0.3,33.1 4.1,31.1 		"/>
	</g>
</g>
</svg>
